500 0 1 0                                           
26 Datakit CrossCadWare V22.2 2    24 Thu Jul  7 03:26:28 2022 
1 9.9999999999999995e-007 1e-010
-0 body $1 $3 $-1 $-1 #
-1 rgb_color-st-attrib $-1 $2 $-1 $0 0.713725 0.713725 0.713725 #
-2 string_attrib-name_attrib-gen-attrib $-1 $-1 $1 $0 keep keep_kept ignore 17 ATTRIB_XACIS_NAME 6 Part 1 #
-3 lump $-1 $-1 $4 $0 #
-4 shell $-1 $-1 $-1 $5 $-1 $3 #
-5 face $6 $7 $86 $4 $-1 $59 forward single #
-6 rgb_color-st-attrib $-1 $-1 $-1 $5 0.301961 0.301961 0.301961 #
-7 face $8 $9 $88 $4 $-1 $60 forward single #
-8 rgb_color-st-attrib $-1 $-1 $-1 $7 0.301961 0.301961 0.301961 #
-9 face $10 $11 $89 $4 $-1 $61 forward single #
-10 rgb_color-st-attrib $-1 $-1 $-1 $9 0.301961 0.301961 0.301961 #
-11 face $12 $13 $90 $4 $-1 $62 forward single #
-12 rgb_color-st-attrib $-1 $-1 $-1 $11 0.301961 0.301961 0.301961 #
-13 face $14 $15 $91 $4 $-1 $63 forward single #
-14 rgb_color-st-attrib $-1 $-1 $-1 $13 0.301961 0.301961 0.301961 #
-15 face $16 $17 $93 $4 $-1 $64 forward single #
-16 rgb_color-st-attrib $-1 $-1 $-1 $15 0.713725 0.713725 0.713725 #
-17 face $18 $19 $96 $4 $-1 $65 forward single #
-18 rgb_color-st-attrib $-1 $-1 $-1 $17 0.298039 0.180392 0.152941 #
-19 face $20 $21 $97 $4 $-1 $66 forward single #
-20 rgb_color-st-attrib $-1 $-1 $-1 $19 0.298039 0.180392 0.152941 #
-21 face $22 $23 $98 $4 $-1 $67 forward single #
-22 rgb_color-st-attrib $-1 $-1 $-1 $21 0.298039 0.180392 0.152941 #
-23 face $24 $25 $99 $4 $-1 $68 forward single #
-24 rgb_color-st-attrib $-1 $-1 $-1 $23 0.298039 0.180392 0.152941 #
-25 face $26 $27 $100 $4 $-1 $69 forward single #
-26 rgb_color-st-attrib $-1 $-1 $-1 $25 0.298039 0.180392 0.152941 #
-27 face $28 $29 $101 $4 $-1 $70 reversed single #
-28 rgb_color-st-attrib $-1 $-1 $-1 $27 0.298039 0.180392 0.152941 #
-29 face $30 $31 $102 $4 $-1 $71 forward single #
-30 rgb_color-st-attrib $-1 $-1 $-1 $29 0.913725 0.913725 0.913725 #
-31 face $32 $33 $104 $4 $-1 $72 forward single #
-32 rgb_color-st-attrib $-1 $-1 $-1 $31 0.913725 0.913725 0.913725 #
-33 face $34 $35 $105 $4 $-1 $73 reversed single #
-34 rgb_color-st-attrib $-1 $-1 $-1 $33 0.913725 0.913725 0.913725 #
-35 face $36 $37 $106 $4 $-1 $74 forward single #
-36 rgb_color-st-attrib $-1 $-1 $-1 $35 0.298039 0.180392 0.152941 #
-37 face $38 $39 $107 $4 $-1 $75 reversed single #
-38 rgb_color-st-attrib $-1 $-1 $-1 $37 0.298039 0.180392 0.152941 #
-39 face $40 $41 $108 $4 $-1 $76 forward single #
-40 rgb_color-st-attrib $-1 $-1 $-1 $39 0.301961 0.301961 0.301961 #
-41 face $42 $43 $109 $4 $-1 $77 forward single #
-42 rgb_color-st-attrib $-1 $-1 $-1 $41 0.301961 0.301961 0.301961 #
-43 face $44 $45 $111 $4 $-1 $78 forward single #
-44 rgb_color-st-attrib $-1 $-1 $-1 $43 0.301961 0.301961 0.301961 #
-45 face $46 $47 $112 $4 $-1 $79 forward single #
-46 rgb_color-st-attrib $-1 $-1 $-1 $45 0.301961 0.301961 0.301961 #
-47 face $48 $49 $113 $4 $-1 $80 forward single #
-48 rgb_color-st-attrib $-1 $-1 $-1 $47 0.301961 0.301961 0.301961 #
-49 face $50 $51 $114 $4 $-1 $81 forward single #
-50 rgb_color-st-attrib $-1 $-1 $-1 $49 0.301961 0.301961 0.301961 #
-51 face $52 $53 $116 $4 $-1 $82 forward single #
-52 rgb_color-st-attrib $-1 $-1 $-1 $51 0.301961 0.301961 0.301961 #
-53 face $54 $55 $117 $4 $-1 $83 forward single #
-54 rgb_color-st-attrib $-1 $-1 $-1 $53 0.301961 0.301961 0.301961 #
-55 face $56 $57 $118 $4 $-1 $84 forward single #
-56 rgb_color-st-attrib $-1 $-1 $-1 $55 0.301961 0.301961 0.301961 #
-57 face $58 $-1 $119 $4 $-1 $85 forward single #
-58 rgb_color-st-attrib $-1 $-1 $-1 $57 0.913725 0.913725 0.913725 #
-59 plane-surface $-1 181.7500000000 -23.2500000000 -11.2500000000 0.0000000000 0.0000000000 -1.0000000000 0.0000000000 1.0000000000 0.0000000000 forward_v I I I I #
-60 plane-surface $-1 130.4372997821 -7.7250000000 0.0000000000 -0.1598880873 -0.9871351476 0.0000000000 0.9871351476 -0.1598880873 0.0000000000 forward_v I I I I #
-61 plane-surface $-1 130.4372997821 -38.7750000000 0.0000000000 1.0000000000 0.0000000000 0.0000000000 0.0000000000 1.0000000000 0.0000000000 forward_v I I I I #
-62 plane-surface $-1 226.2872997821 -23.2500000000 0.0000000000 -0.1598880873 0.9871351476 0.0000000000 -0.9871351476 -0.1598880873 0.0000000000 forward_v I I I I #
-63 plane-surface $-1 181.7500000000 -23.2500000000 11.2500000000 0.0000000000 0.0000000000 1.0000000000 0.0000000000 -1.0000000000 0.0000000000 forward_v I I I I #
-64 plane-surface $-1 128.5000000000 0.0000000000 0.0000000000 1.0000000000 0.0000000000 0.0000000000 0.0000000000 1.0000000000 0.0000000000 forward_v I I I I #
-65 plane-surface $-1 116.5000000000 -43.5000000000 19.0000000000 0.0000000000 -1.0000000000 0.0000000000 0.0000000000 0.0000000000 -1.0000000000 forward_v I I I I #
-66 plane-surface $-1 10.0000000000 20.5000000000 19.0000000000 0.0000000000 -0.0000000000 1.0000000000 0.0000000000 -1.0000000000 -0.0000000000 forward_v I I I I #
-67 plane-surface $-1 10.0000000000 20.5000000000 -19.0000000000 0.0000000000 1.0000000000 0.0000000000 0.0000000000 0.0000000000 1.0000000000 forward_v I I I I #
-68 plane-surface $-1 10.0000000000 -20.5000000000 -19.0000000000 0.0000000000 0.0000000000 -1.0000000000 0.0000000000 1.0000000000 0.0000000000 forward_v I I I I #
-69 plane-surface $-1 10.0000000000 -20.5000000000 19.0000000000 0.0000000000 -1.0000000000 0.0000000000 0.0000000000 0.0000000000 -1.0000000000 forward_v I I I I #
-70 plane-surface $-1 116.5000000000 0.0000000000 0.0000000000 1.0000000000 0.0000000000 0.0000000000 0.0000000000 1.0000000000 0.0000000000 forward_v I I I I #
-71 plane-surface $-1 10.0000000000 0.0000000000 0.0000000000 1.0000000000 0.0000000000 0.0000000000 0.0000000000 1.0000000000 0.0000000000 forward_v I I I I #
-72 cone-surface $-1 0.0000000000 0.0000000000 0.0000000000 1.0000000000 0.0000000000 0.0000000000 0.0000000000 -32.0000000000 0.0000000000 1 I I 0 1 1 forward I I I I #
-73 plane-surface $-1 0.0000000000 0.0000000000 0.0000000000 1.0000000000 0.0000000000 0.0000000000 0.0000000000 1.0000000000 0.0000000000 forward_v I I I I #
-74 plane-surface $-1 116.5000000000 43.5000000000 -19.0000000000 0.0000000000 1.0000000000 0.0000000000 0.0000000000 0.0000000000 1.0000000000 forward_v I I I I #
-75 plane-surface $-1 116.5000000000 0.0000000000 0.0000000000 1.0000000000 0.0000000000 0.0000000000 0.0000000000 1.0000000000 0.0000000000 forward_v I I I I #
-76 plane-surface $-1 235.0000000000 23.2500000000 0.0000000000 0.1598880873 0.9871351476 0.0000000000 -0.9871351476 0.1598880873 0.0000000000 forward_v I I I I #
-77 plane-surface $-1 181.7500000000 -23.2500000000 -11.2500000000 0.0000000000 0.0000000000 -1.0000000000 0.0000000000 1.0000000000 0.0000000000 forward_v I I I I #
-78 plane-surface $-1 130.4372997821 38.7750000000 0.0000000000 -0.1598880873 -0.9871351476 0.0000000000 0.9871351476 -0.1598880873 0.0000000000 forward_v I I I I #
-79 plane-surface $-1 130.4372997821 -38.7750000000 0.0000000000 1.0000000000 0.0000000000 0.0000000000 0.0000000000 1.0000000000 0.0000000000 forward_v I I I I #
-80 plane-surface $-1 226.2872997821 23.2500000000 0.0000000000 -0.1598880873 0.9871351476 0.0000000000 -0.9871351476 -0.1598880873 0.0000000000 forward_v I I I I #
-81 plane-surface $-1 181.7500000000 -23.2500000000 11.2500000000 0.0000000000 0.0000000000 1.0000000000 0.0000000000 -1.0000000000 0.0000000000 forward_v I I I I #
-82 plane-surface $-1 128.5000000000 6.0000000000 0.0000000000 0.1598880873 -0.9871351476 0.0000000000 0.9871351476 0.1598880873 0.0000000000 forward_v I I I I #
-83 plane-surface $-1 235.0000000000 -23.2500000000 0.0000000000 0.1598880873 0.9871351476 0.0000000000 -0.9871351476 0.1598880873 0.0000000000 forward_v I I I I #
-84 plane-surface $-1 128.5000000000 -40.5000000000 0.0000000000 0.1598880873 -0.9871351476 0.0000000000 0.9871351476 0.1598880873 0.0000000000 forward_v I I I I #
-85 cone-surface $-1 0.0000000000 0.0000000000 0.0000000000 1.0000000000 0.0000000000 0.0000000000 0.0000000000 32.0000000000 0.0000000000 1 I I 0 1 1 forward I I I I #
-86 loop $-1 $87 $120 $5 #
-87 loop $-1 $-1 $123 $5 #
-88 loop $-1 $-1 $126 $7 #
-89 loop $-1 $-1 $130 $9 #
-90 loop $-1 $-1 $134 $11 #
-91 loop $-1 $92 $138 $13 #
-92 loop $-1 $-1 $141 $13 #
-93 loop $-1 $94 $144 $15 #
-94 loop $-1 $95 $148 $15 #
-95 loop $-1 $-1 $152 $15 #
-96 loop $-1 $-1 $156 $17 #
-97 loop $-1 $-1 $160 $19 #
-98 loop $-1 $-1 $168 $21 #
-99 loop $-1 $-1 $172 $23 #
-100 loop $-1 $-1 $180 $25 #
-101 loop $-1 $-1 $184 $27 #
-102 loop $-1 $103 $188 $29 #
-103 loop $-1 $-1 $192 $29 #
-104 loop $-1 $-1 $194 $31 #
-105 loop $-1 $-1 $198 $33 #
-106 loop $-1 $-1 $200 $35 #
-107 loop $-1 $-1 $204 $37 #
-108 loop $-1 $-1 $208 $39 #
-109 loop $-1 $110 $212 $41 #
-110 loop $-1 $-1 $215 $41 #
-111 loop $-1 $-1 $218 $43 #
-112 loop $-1 $-1 $222 $45 #
-113 loop $-1 $-1 $226 $47 #
-114 loop $-1 $115 $230 $49 #
-115 loop $-1 $-1 $233 $49 #
-116 loop $-1 $-1 $236 $51 #
-117 loop $-1 $-1 $240 $53 #
-118 loop $-1 $-1 $244 $55 #
-119 loop $-1 $-1 $248 $57 #
-120 coedge $-1 $121 $122 $247 $252 forward $86 $-1 #
-121 coedge $-1 $122 $120 $144 $253 reversed $86 $-1 #
-122 coedge $-1 $120 $121 $243 $254 forward $86 $-1 #
-123 coedge $-1 $124 $125 $133 $255 forward $87 $-1 #
-124 coedge $-1 $125 $123 $137 $256 forward $87 $-1 #
-125 coedge $-1 $123 $124 $129 $257 forward $87 $-1 #
-126 coedge $-1 $127 $129 $136 $258 forward $88 $-1 #
-127 coedge $-1 $128 $126 $142 $259 reversed $88 $-1 #
-128 coedge $-1 $129 $127 $130 $260 reversed $88 $-1 #
-129 coedge $-1 $126 $128 $125 $257 reversed $88 $-1 #
-130 coedge $-1 $131 $133 $128 $260 forward $89 $-1 #
-131 coedge $-1 $132 $130 $141 $261 reversed $89 $-1 #
-132 coedge $-1 $133 $131 $134 $262 forward $89 $-1 #
-133 coedge $-1 $130 $132 $123 $255 reversed $89 $-1 #
-134 coedge $-1 $135 $137 $132 $262 reversed $90 $-1 #
-135 coedge $-1 $136 $134 $143 $263 reversed $90 $-1 #
-136 coedge $-1 $137 $135 $126 $258 reversed $90 $-1 #
-137 coedge $-1 $134 $136 $124 $256 reversed $90 $-1 #
-138 coedge $-1 $139 $140 $245 $264 forward $91 $-1 #
-139 coedge $-1 $140 $138 $241 $265 forward $91 $-1 #
-140 coedge $-1 $138 $139 $146 $266 reversed $91 $-1 #
-141 coedge $-1 $142 $143 $131 $261 forward $92 $-1 #
-142 coedge $-1 $143 $141 $127 $259 forward $92 $-1 #
-143 coedge $-1 $141 $142 $135 $263 forward $92 $-1 #
-144 coedge $-1 $145 $147 $121 $253 forward $93 $-1 #
-145 coedge $-1 $146 $144 $246 $267 forward $93 $-1 #
-146 coedge $-1 $147 $145 $140 $266 forward $93 $-1 #
-147 coedge $-1 $144 $146 $240 $268 forward $93 $-1 #
-148 coedge $-1 $149 $151 $213 $269 forward $94 $-1 #
-149 coedge $-1 $150 $148 $238 $270 forward $94 $-1 #
-150 coedge $-1 $151 $149 $232 $271 forward $94 $-1 #
-151 coedge $-1 $148 $150 $208 $272 forward $94 $-1 #
-152 coedge $-1 $153 $155 $176 $273 forward $95 $-1 #
-153 coedge $-1 $154 $152 $202 $274 forward $95 $-1 #
-154 coedge $-1 $155 $153 $164 $275 forward $95 $-1 #
-155 coedge $-1 $152 $154 $158 $276 forward $95 $-1 #
-156 coedge $-1 $157 $159 $186 $277 forward $96 $-1 #
-157 coedge $-1 $158 $156 $177 $278 forward $96 $-1 #
-158 coedge $-1 $159 $157 $155 $276 reversed $96 $-1 #
-159 coedge $-1 $156 $158 $163 $279 reversed $96 $-1 #
-160 coedge $-1 $161 $167 $188 $280 reversed $97 $-1 #
-161 coedge $-1 $162 $160 $183 $281 forward $97 $-1 #
-162 coedge $-1 $163 $161 $187 $282 forward $97 $-1 #
-163 coedge $-1 $164 $162 $159 $279 forward $97 $-1 #
-164 coedge $-1 $165 $163 $154 $275 reversed $97 $-1 #
-165 coedge $-1 $166 $164 $201 $283 reversed $97 $-1 #
-166 coedge $-1 $167 $165 $205 $284 forward $97 $-1 #
-167 coedge $-1 $160 $166 $169 $285 reversed $97 $-1 #
-168 coedge $-1 $169 $171 $189 $286 reversed $98 $-1 #
-169 coedge $-1 $170 $168 $167 $285 forward $98 $-1 #
-170 coedge $-1 $171 $169 $204 $287 reversed $98 $-1 #
-171 coedge $-1 $168 $170 $173 $288 reversed $98 $-1 #
-172 coedge $-1 $173 $179 $190 $289 reversed $99 $-1 #
-173 coedge $-1 $174 $172 $171 $288 forward $99 $-1 #
-174 coedge $-1 $175 $173 $207 $290 forward $99 $-1 #
-175 coedge $-1 $176 $174 $203 $291 forward $99 $-1 #
-176 coedge $-1 $177 $175 $152 $273 reversed $99 $-1 #
-177 coedge $-1 $178 $176 $157 $278 reversed $99 $-1 #
-178 coedge $-1 $179 $177 $185 $292 forward $99 $-1 #
-179 coedge $-1 $172 $178 $181 $293 reversed $99 $-1 #
-180 coedge $-1 $181 $183 $191 $294 reversed $100 $-1 #
-181 coedge $-1 $182 $180 $179 $293 forward $100 $-1 #
-182 coedge $-1 $183 $181 $184 $295 reversed $100 $-1 #
-183 coedge $-1 $180 $182 $161 $281 reversed $100 $-1 #
-184 coedge $-1 $185 $187 $182 $295 forward $101 $-1 #
-185 coedge $-1 $186 $184 $178 $292 reversed $101 $-1 #
-186 coedge $-1 $187 $185 $156 $277 reversed $101 $-1 #
-187 coedge $-1 $184 $186 $162 $282 reversed $101 $-1 #
-188 coedge $-1 $189 $191 $160 $280 forward $102 $-1 #
-189 coedge $-1 $190 $188 $168 $286 forward $102 $-1 #
-190 coedge $-1 $191 $189 $172 $289 forward $102 $-1 #
-191 coedge $-1 $188 $190 $180 $294 forward $102 $-1 #
-192 coedge $-1 $193 $193 $249 $296 forward $103 $-1 #
-193 coedge $-1 $192 $192 $197 $297 forward $103 $-1 #
-194 coedge $-1 $195 $197 $248 $298 reversed $104 $-1 #
-195 coedge $-1 $196 $194 $198 $299 forward $104 $-1 #
-196 coedge $-1 $197 $195 $250 $300 forward $104 $-1 #
-197 coedge $-1 $194 $196 $193 $297 reversed $104 $-1 #
-198 coedge $-1 $199 $199 $195 $299 reversed $105 $-1 #
-199 coedge $-1 $198 $198 $251 $301 reversed $105 $-1 #
-200 coedge $-1 $201 $203 $206 $302 forward $106 $-1 #
-201 coedge $-1 $202 $200 $165 $283 forward $106 $-1 #
-202 coedge $-1 $203 $201 $153 $274 reversed $106 $-1 #
-203 coedge $-1 $200 $202 $175 $291 reversed $106 $-1 #
-204 coedge $-1 $205 $207 $170 $287 forward $107 $-1 #
-205 coedge $-1 $206 $204 $166 $284 reversed $107 $-1 #
-206 coedge $-1 $207 $205 $200 $302 reversed $107 $-1 #
-207 coedge $-1 $204 $206 $174 $290 reversed $107 $-1 #
-208 coedge $-1 $209 $211 $151 $272 reversed $108 $-1 #
-209 coedge $-1 $210 $208 $231 $303 reversed $108 $-1 #
-210 coedge $-1 $211 $209 $236 $304 reversed $108 $-1 #
-211 coedge $-1 $208 $210 $214 $305 reversed $108 $-1 #
-212 coedge $-1 $213 $214 $239 $306 forward $109 $-1 #
-213 coedge $-1 $214 $212 $148 $269 reversed $109 $-1 #
-214 coedge $-1 $212 $213 $211 $305 forward $109 $-1 #
-215 coedge $-1 $216 $217 $225 $307 forward $110 $-1 #
-216 coedge $-1 $217 $215 $229 $308 forward $110 $-1 #
-217 coedge $-1 $215 $216 $221 $309 forward $110 $-1 #
-218 coedge $-1 $219 $221 $228 $310 forward $111 $-1 #
-219 coedge $-1 $220 $218 $234 $311 reversed $111 $-1 #
-220 coedge $-1 $221 $219 $222 $312 reversed $111 $-1 #
-221 coedge $-1 $218 $220 $217 $309 reversed $111 $-1 #
-222 coedge $-1 $223 $225 $220 $312 forward $112 $-1 #
-223 coedge $-1 $224 $222 $233 $313 reversed $112 $-1 #
-224 coedge $-1 $225 $223 $226 $314 forward $112 $-1 #
-225 coedge $-1 $222 $224 $215 $307 reversed $112 $-1 #
-226 coedge $-1 $227 $229 $224 $314 reversed $113 $-1 #
-227 coedge $-1 $228 $226 $235 $315 reversed $113 $-1 #
-228 coedge $-1 $229 $227 $218 $310 reversed $113 $-1 #
-229 coedge $-1 $226 $228 $216 $308 reversed $113 $-1 #
-230 coedge $-1 $231 $232 $237 $316 forward $114 $-1 #
-231 coedge $-1 $232 $230 $209 $303 forward $114 $-1 #
-232 coedge $-1 $230 $231 $150 $271 reversed $114 $-1 #
-233 coedge $-1 $234 $235 $223 $313 forward $115 $-1 #
-234 coedge $-1 $235 $233 $219 $311 forward $115 $-1 #
-235 coedge $-1 $233 $234 $227 $315 forward $115 $-1 #
-236 coedge $-1 $237 $239 $210 $304 forward $116 $-1 #
-237 coedge $-1 $238 $236 $230 $316 reversed $116 $-1 #
-238 coedge $-1 $239 $237 $149 $270 reversed $116 $-1 #
-239 coedge $-1 $236 $238 $212 $306 reversed $116 $-1 #
-240 coedge $-1 $241 $243 $147 $268 reversed $117 $-1 #
-241 coedge $-1 $242 $240 $139 $265 reversed $117 $-1 #
-242 coedge $-1 $243 $241 $244 $317 reversed $117 $-1 #
-243 coedge $-1 $240 $242 $122 $254 reversed $117 $-1 #
-244 coedge $-1 $245 $247 $242 $317 forward $118 $-1 #
-245 coedge $-1 $246 $244 $138 $264 reversed $118 $-1 #
-246 coedge $-1 $247 $245 $145 $267 reversed $118 $-1 #
-247 coedge $-1 $244 $246 $120 $252 reversed $118 $-1 #
-248 coedge $-1 $249 $251 $194 $298 forward $119 $-1 #
-249 coedge $-1 $250 $248 $192 $296 reversed $119 $-1 #
-250 coedge $-1 $251 $249 $196 $300 reversed $119 $-1 #
-251 coedge $-1 $248 $250 $199 $301 forward $119 $-1 #
-252 edge $-1 $319 -107.8879627206 $321 0.0000000000 $120 $318 forward 7 unknown #
-253 edge $-1 $324 -5.6250000000 $321 28.8750000000 $121 $323 forward 7 unknown #
-254 edge $-1 $324 -107.8879627206 $319 0.0000000000 $122 $326 forward 7 unknown #
-255 edge $-1 $328 -31.0500000000 $330 0.0000000000 $123 $327 forward 7 unknown #
-256 edge $-1 $330 -97.0991664485 $333 0.0000000000 $124 $332 forward 7 unknown #
-257 edge $-1 $333 -97.0991664485 $328 0.0000000000 $125 $335 forward 7 unknown #
-258 edge $-1 $333 -11.2500000000 $337 11.2500000000 $126 $336 forward 7 unknown #
-259 edge $-1 $340 0.0000000000 $337 97.0991664485 $127 $339 forward 7 unknown #
-260 edge $-1 $328 -11.2500000000 $340 11.2500000000 $128 $342 forward 7 unknown #
-261 edge $-1 $344 0.0000000000 $340 31.0500000000 $131 $343 forward 7 unknown #
-262 edge $-1 $344 -11.2500000000 $330 11.2500000000 $132 $346 forward 7 unknown #
-263 edge $-1 $337 0.0000000000 $344 97.0991664485 $135 $347 forward 7 unknown #
-264 edge $-1 $349 0.0000000000 $351 107.8879627206 $138 $348 forward 7 unknown #
-265 edge $-1 $351 0.0000000000 $354 107.8879627206 $139 $353 forward 7 unknown #
-266 edge $-1 $349 -28.8750000000 $354 5.6250000000 $140 $356 forward 7 unknown #
-267 edge $-1 $321 -11.2500000000 $349 11.2500000000 $145 $357 forward 7 unknown #
-268 edge $-1 $354 -11.2500000000 $324 11.2500000000 $147 $358 forward 7 unknown #
-269 edge $-1 $360 -28.8750000000 $362 5.6250000000 $148 $359 forward 7 unknown #
-270 edge $-1 $362 -11.2500000000 $365 11.2500000000 $149 $364 forward 7 unknown #
-271 edge $-1 $365 -5.6250000000 $368 28.8750000000 $150 $367 forward 7 unknown #
-272 edge $-1 $368 -11.2500000000 $360 11.2500000000 $151 $370 forward 7 unknown #
-273 edge $-1 $372 0.0000000000 $374 87.0000000000 $152 $371 forward 7 unknown #
-274 edge $-1 $374 0.0000000000 $377 38.0000000000 $153 $376 forward 7 unknown #
-275 edge $-1 $377 0.0000000000 $380 87.0000000000 $154 $379 forward 7 unknown #
-276 edge $-1 $380 0.0000000000 $372 38.0000000000 $155 $382 forward 7 unknown #
-277 edge $-1 $384 0.0000000000 $386 38.0000000000 $156 $383 forward 7 unknown #
-278 edge $-1 $386 0.0000000000 $372 12.0000000000 $157 $388 forward 7 unknown #
-279 edge $-1 $384 0.0000000000 $380 12.0000000000 $159 $389 forward 7 unknown #
-280 edge $-1 $391 -30.7500000000 $393 10.2500000000 $160 $390 forward 7 unknown #
-281 edge $-1 $391 0.0000000000 $396 106.5000000000 $161 $395 forward 7 unknown #
-282 edge $-1 $396 64.0000000000 $384 87.0000000000 $162 $398 forward 7 unknown #
-283 edge $-1 $400 0.0000000000 $377 12.0000000000 $165 $399 forward 7 unknown #
-284 edge $-1 $400 0.0000000000 $403 23.0000000000 $166 $402 forward 7 unknown #
-285 edge $-1 $393 0.0000000000 $403 106.5000000000 $167 $405 forward 7 unknown #
-286 edge $-1 $393 -28.5000000000 $407 9.5000000000 $168 $406 forward 7 unknown #
-287 edge $-1 $410 0.0000000000 $403 38.0000000000 $170 $409 forward 7 unknown #
-288 edge $-1 $407 0.0000000000 $410 106.5000000000 $171 $412 forward 7 unknown #
-289 edge $-1 $407 -30.7500000000 $414 10.2500000000 $172 $413 forward 7 unknown #
-290 edge $-1 $410 64.0000000000 $417 87.0000000000 $174 $416 forward 7 unknown #
-291 edge $-1 $417 0.0000000000 $374 12.0000000000 $175 $419 forward 7 unknown #
-292 edge $-1 $386 0.0000000000 $421 23.0000000000 $178 $420 forward 7 unknown #
-293 edge $-1 $414 0.0000000000 $421 106.5000000000 $179 $423 forward 7 unknown #
-294 edge $-1 $414 -28.5000000000 $391 9.5000000000 $180 $424 forward 7 unknown #
-295 edge $-1 $396 0.0000000000 $421 38.0000000000 $182 $425 forward 7 unknown #
-296 edge $-1 $427 0.0000000000 $429 3.1415926536 $192 $426 forward 7 unknown #
-297 edge $-1 $429 3.1415926536 $427 6.2831853072 $193 $431 forward 7 unknown #
-298 edge $-1 $433 0.0000000000 $429 10.0000000000 $194 $432 forward 7 unknown #
-299 edge $-1 $433 3.1415926536 $436 6.2831853072 $195 $435 forward 7 unknown #
-300 edge $-1 $436 0.0000000000 $427 10.0000000000 $196 $438 forward 7 unknown #
-301 edge $-1 $436 0.0000000000 $433 3.1415926536 $199 $439 forward 7 unknown #
-302 edge $-1 $417 0.0000000000 $400 38.0000000000 $200 $440 forward 7 unknown #
-303 edge $-1 $442 0.0000000000 $368 107.8879627206 $209 $441 forward 7 unknown #
-304 edge $-1 $445 -11.2500000000 $442 11.2500000000 $210 $444 forward 7 unknown #
-305 edge $-1 $360 -107.8879627206 $445 0.0000000000 $211 $447 forward 7 unknown #
-306 edge $-1 $445 -107.8879627206 $362 0.0000000000 $212 $448 forward 7 unknown #
-307 edge $-1 $450 -31.0500000000 $452 0.0000000000 $215 $449 forward 7 unknown #
-308 edge $-1 $452 -97.0991664485 $455 0.0000000000 $216 $454 forward 7 unknown #
-309 edge $-1 $455 -97.0991664485 $450 0.0000000000 $217 $457 forward 7 unknown #
-310 edge $-1 $455 -11.2500000000 $459 11.2500000000 $218 $458 forward 7 unknown #
-311 edge $-1 $462 0.0000000000 $459 97.0991664485 $219 $461 forward 7 unknown #
-312 edge $-1 $450 -11.2500000000 $462 11.2500000000 $220 $464 forward 7 unknown #
-313 edge $-1 $466 0.0000000000 $462 31.0500000000 $223 $465 forward 7 unknown #
-314 edge $-1 $466 -11.2500000000 $452 11.2500000000 $224 $468 forward 7 unknown #
-315 edge $-1 $459 0.0000000000 $466 97.0991664485 $227 $469 forward 7 unknown #
-316 edge $-1 $365 0.0000000000 $442 107.8879627206 $230 $470 forward 7 unknown #
-317 edge $-1 $319 -11.2500000000 $351 11.2500000000 $242 $471 forward 7 unknown #
-318 straight-curve $-1 128.500000000000000 -40.500000000000000 -11.250000000000000 -0.987135147558702 -0.159888087280635 0.000000000000000 I I #
-319 vertex $-1 $252 $320 #
-320 point $-1 235.000000000000000 -23.250000000000000 -11.250000000000000 #
-321 vertex $-1 $252 $322 #
-322 point $-1 128.500000000000000 -40.500000000000000 -11.250000000000000 #
-323 straight-curve $-1 128.500000000000000 -11.625000000000000 -11.250000000000000 0.000000000000000 -1.000000000000000 0.000000000000000 I I #
-324 vertex $-1 $253 $325 #
-325 point $-1 128.500000000000000 -6.000000000000000 -11.250000000000000 #
-326 straight-curve $-1 235.000000000000000 -23.250000000000000 -11.250000000000000 0.987135147558702 -0.159888087280635 0.000000000000000 I I #
-327 straight-curve $-1 130.437299782056016 -38.774999999999999 -11.250000000000000 0.000000000000000 -1.000000000000000 0.000000000000000 I I #
-328 vertex $-1 $255 $329 #
-329 point $-1 130.437299782056016 -7.725000000000001 -11.250000000000000 #
-330 vertex $-1 $255 $331 #
-331 point $-1 130.437299782056016 -38.774999999999999 -11.250000000000000 #
-332 straight-curve $-1 226.287299782056010 -23.250000000000000 -11.250000000000000 0.987135147558702 0.159888087280635 0.000000000000000 I I #
-333 vertex $-1 $256 $334 #
-334 point $-1 226.287299782056010 -23.250000000000000 -11.250000000000000 #
-335 straight-curve $-1 130.437299782056016 -7.725000000000001 -11.250000000000000 -0.987135147558702 0.159888087280635 0.000000000000000 I I #
-336 straight-curve $-1 226.287299782056010 -23.250000000000000 0.000000000000000 0.000000000000000 0.000000000000000 1.000000000000000 I I #
-337 vertex $-1 $258 $338 #
-338 point $-1 226.287299782056010 -23.250000000000000 11.250000000000000 #
-339 straight-curve $-1 130.437299782056016 -7.725000000000001 11.250000000000000 0.987135147558702 -0.159888087280635 0.000000000000000 I I #
-340 vertex $-1 $259 $341 #
-341 point $-1 130.437299782056016 -7.725000000000001 11.250000000000000 #
-342 straight-curve $-1 130.437299782056016 -7.725000000000001 0.000000000000000 0.000000000000000 0.000000000000000 1.000000000000000 I I #
-343 straight-curve $-1 130.437299782056016 -38.774999999999999 11.250000000000000 0.000000000000000 1.000000000000000 0.000000000000000 I I #
-344 vertex $-1 $261 $345 #
-345 point $-1 130.437299782056016 -38.774999999999999 11.250000000000000 #
-346 straight-curve $-1 130.437299782056016 -38.774999999999999 0.000000000000000 0.000000000000000 0.000000000000000 -1.000000000000000 I I #
-347 straight-curve $-1 226.287299782056010 -23.250000000000000 11.250000000000000 -0.987135147558702 -0.159888087280635 0.000000000000000 I I #
-348 straight-curve $-1 128.500000000000000 -40.500000000000000 11.250000000000000 0.987135147558702 0.159888087280635 0.000000000000000 I I #
-349 vertex $-1 $264 $350 #
-350 point $-1 128.500000000000000 -40.500000000000000 11.250000000000000 #
-351 vertex $-1 $264 $352 #
-352 point $-1 235.000000000000000 -23.250000000000000 11.250000000000000 #
-353 straight-curve $-1 235.000000000000000 -23.250000000000000 11.250000000000000 -0.987135147558702 0.159888087280635 0.000000000000000 I I #
-354 vertex $-1 $265 $355 #
-355 point $-1 128.500000000000000 -6.000000000000000 11.250000000000000 #
-356 straight-curve $-1 128.500000000000000 -11.625000000000000 11.250000000000000 0.000000000000000 1.000000000000000 0.000000000000000 I I #
-357 straight-curve $-1 128.500000000000000 -40.500000000000000 0.000000000000000 0.000000000000000 0.000000000000000 1.000000000000000 I I #
-358 straight-curve $-1 128.500000000000000 -6.000000000000000 0.000000000000000 0.000000000000000 0.000000000000000 -1.000000000000000 I I #
-359 straight-curve $-1 128.500000000000000 11.625000000000000 -11.250000000000000 0.000000000000000 -1.000000000000000 0.000000000000000 I I #
-360 vertex $-1 $269 $361 #
-361 point $-1 128.500000000000000 40.500000000000000 -11.250000000000000 #
-362 vertex $-1 $269 $363 #
-363 point $-1 128.500000000000000 6.000000000000000 -11.250000000000000 #
-364 straight-curve $-1 128.500000000000000 6.000000000000000 0.000000000000000 0.000000000000000 0.000000000000000 1.000000000000000 I I #
-365 vertex $-1 $270 $366 #
-366 point $-1 128.500000000000000 6.000000000000000 11.250000000000000 #
-367 straight-curve $-1 128.500000000000000 11.625000000000000 11.250000000000000 0.000000000000000 1.000000000000000 0.000000000000000 I I #
-368 vertex $-1 $271 $369 #
-369 point $-1 128.500000000000000 40.500000000000000 11.250000000000000 #
-370 straight-curve $-1 128.500000000000000 40.500000000000000 0.000000000000000 0.000000000000000 0.000000000000000 -1.000000000000000 I I #
-371 straight-curve $-1 128.500000000000000 -43.500000000000000 -19.000000000000000 0.000000000000000 1.000000000000000 0.000000000000000 I I #
-372 vertex $-1 $273 $373 #
-373 point $-1 128.500000000000000 -43.500000000000000 -19.000000000000000 #
-374 vertex $-1 $273 $375 #
-375 point $-1 128.500000000000000 43.500000000000000 -19.000000000000000 #
-376 straight-curve $-1 128.500000000000000 43.500000000000000 -19.000000000000000 0.000000000000000 0.000000000000000 1.000000000000000 I I #
-377 vertex $-1 $274 $378 #
-378 point $-1 128.500000000000000 43.500000000000000 19.000000000000000 #
-379 straight-curve $-1 128.500000000000000 43.500000000000000 19.000000000000000 0.000000000000000 -1.000000000000000 0.000000000000000 I I #
-380 vertex $-1 $275 $381 #
-381 point $-1 128.500000000000000 -43.500000000000000 19.000000000000000 #
-382 straight-curve $-1 128.500000000000000 -43.500000000000000 19.000000000000000 0.000000000000000 0.000000000000000 -1.000000000000000 I I #
-383 straight-curve $-1 116.500000000000000 -43.500000000000000 19.000000000000000 0.000000000000000 0.000000000000000 -1.000000000000000 I I #
-384 vertex $-1 $277 $385 #
-385 point $-1 116.500000000000000 -43.500000000000000 19.000000000000000 #
-386 vertex $-1 $277 $387 #
-387 point $-1 116.500000000000000 -43.500000000000000 -19.000000000000000 #
-388 straight-curve $-1 116.500000000000000 -43.500000000000000 -19.000000000000000 1.000000000000000 0.000000000000000 0.000000000000000 I I #
-389 straight-curve $-1 116.500000000000000 -43.500000000000000 19.000000000000000 1.000000000000000 0.000000000000000 0.000000000000000 I I #
-390 straight-curve $-1 10.000000000000000 10.250000000000000 19.000000000000000 0.000000000000000 1.000000000000000 0.000000000000000 I I #
-391 vertex $-1 $280 $392 #
-392 point $-1 10.000000000000000 -20.500000000000000 19.000000000000000 #
-393 vertex $-1 $280 $394 #
-394 point $-1 10.000000000000000 20.500000000000000 19.000000000000000 #
-395 straight-curve $-1 10.000000000000000 -20.500000000000000 19.000000000000000 1.000000000000000 0.000000000000000 0.000000000000000 I I #
-396 vertex $-1 $281 $397 #
-397 point $-1 116.500000000000000 -20.500000000000000 19.000000000000000 #
-398 straight-curve $-1 116.500000000000000 43.500000000000000 19.000000000000000 0.000000000000000 -1.000000000000000 0.000000000000000 I I #
-399 straight-curve $-1 116.500000000000000 43.500000000000000 19.000000000000000 1.000000000000000 0.000000000000000 0.000000000000000 I I #
-400 vertex $-1 $283 $401 #
-401 point $-1 116.500000000000000 43.500000000000000 19.000000000000000 #
-402 straight-curve $-1 116.500000000000000 43.500000000000000 19.000000000000000 0.000000000000000 -1.000000000000000 0.000000000000000 I I #
-403 vertex $-1 $284 $404 #
-404 point $-1 116.500000000000000 20.500000000000000 19.000000000000000 #
-405 straight-curve $-1 10.000000000000000 20.500000000000000 19.000000000000000 1.000000000000000 0.000000000000000 0.000000000000000 I I #
-406 straight-curve $-1 10.000000000000000 20.500000000000000 -9.500000000000000 0.000000000000000 0.000000000000000 -1.000000000000000 I I #
-407 vertex $-1 $286 $408 #
-408 point $-1 10.000000000000000 20.500000000000000 -19.000000000000000 #
-409 straight-curve $-1 116.500000000000000 20.500000000000000 -19.000000000000000 0.000000000000000 0.000000000000000 1.000000000000000 I I #
-410 vertex $-1 $287 $411 #
-411 point $-1 116.500000000000000 20.500000000000000 -19.000000000000000 #
-412 straight-curve $-1 10.000000000000000 20.500000000000000 -19.000000000000000 1.000000000000000 0.000000000000000 0.000000000000000 I I #
-413 straight-curve $-1 10.000000000000000 -10.250000000000000 -19.000000000000000 0.000000000000000 -1.000000000000000 -0.000000000000000 I I #
-414 vertex $-1 $289 $415 #
-415 point $-1 10.000000000000000 -20.500000000000000 -19.000000000000000 #
-416 straight-curve $-1 116.500000000000000 -43.500000000000000 -19.000000000000000 0.000000000000000 1.000000000000000 0.000000000000000 I I #
-417 vertex $-1 $290 $418 #
-418 point $-1 116.500000000000000 43.500000000000000 -19.000000000000000 #
-419 straight-curve $-1 116.500000000000000 43.500000000000000 -19.000000000000000 1.000000000000000 0.000000000000000 0.000000000000000 I I #
-420 straight-curve $-1 116.500000000000000 -43.500000000000000 -19.000000000000000 0.000000000000000 1.000000000000000 0.000000000000000 I I #
-421 vertex $-1 $292 $422 #
-422 point $-1 116.500000000000000 -20.500000000000000 -19.000000000000000 #
-423 straight-curve $-1 10.000000000000000 -20.500000000000000 -19.000000000000000 1.000000000000000 0.000000000000000 0.000000000000000 I I #
-424 straight-curve $-1 10.000000000000000 -20.500000000000000 9.500000000000000 0.000000000000000 0.000000000000000 1.000000000000000 I I #
-425 straight-curve $-1 116.500000000000000 -20.500000000000000 19.000000000000000 0.000000000000000 0.000000000000000 -1.000000000000000 I I #
-426 ellipse-curve $-1 10.000000000000000 0.000000000000000 0.000000000000000 1.000000000000000 0.000000000000000 -0.000000000000000 0.000000000000000 0.000000000000000 32.000000000000000 1.000000000000000 I I #
-427 vertex $-1 $296 $428 #
-428 point $-1 10.000000000000000 0.000000000000000 32.000000000000000 #
-429 vertex $-1 $296 $430 #
-430 point $-1 10.000000000000000 -0.000000000000004 -32.000000000000000 #
-431 ellipse-curve $-1 10.000000000000000 0.000000000000000 0.000000000000000 1.000000000000000 0.000000000000000 -0.000000000000000 0.000000000000000 0.000000000000000 32.000000000000000 1.000000000000000 I I #
-432 straight-curve $-1 0.000000000000000 -0.000000000000004 -32.000000000000000 1.000000000000000 0.000000000000000 0.000000000000000 I I #
-433 vertex $-1 $298 $434 #
-434 point $-1 0.000000000000000 -0.000000000000004 -32.000000000000000 #
-435 ellipse-curve $-1 0.000000000000000 0.000000000000000 0.000000000000000 1.000000000000000 0.000000000000000 -0.000000000000000 0.000000000000000 0.000000000000000 32.000000000000000 1.000000000000000 I I #
-436 vertex $-1 $299 $437 #
-437 point $-1 0.000000000000000 0.000000000000000 32.000000000000000 #
-438 straight-curve $-1 0.000000000000000 0.000000000000000 32.000000000000000 1.000000000000000 0.000000000000000 0.000000000000000 I I #
-439 ellipse-curve $-1 0.000000000000000 0.000000000000000 0.000000000000000 1.000000000000000 0.000000000000000 -0.000000000000000 0.000000000000000 0.000000000000000 32.000000000000000 1.000000000000000 I I #
-440 straight-curve $-1 116.500000000000000 43.500000000000000 -19.000000000000000 0.000000000000000 0.000000000000000 1.000000000000000 I I #
-441 straight-curve $-1 235.000000000000000 23.250000000000000 11.250000000000000 -0.987135147558702 0.159888087280635 0.000000000000000 I I #
-442 vertex $-1 $303 $443 #
-443 point $-1 235.000000000000000 23.250000000000000 11.250000000000000 #
-444 straight-curve $-1 235.000000000000000 23.250000000000000 0.000000000000000 0.000000000000000 0.000000000000000 1.000000000000000 I I #
-445 vertex $-1 $304 $446 #
-446 point $-1 235.000000000000000 23.250000000000000 -11.250000000000000 #
-447 straight-curve $-1 235.000000000000000 23.250000000000000 -11.250000000000000 0.987135147558702 -0.159888087280635 0.000000000000000 I I #
-448 straight-curve $-1 128.500000000000000 6.000000000000000 -11.250000000000000 -0.987135147558702 -0.159888087280635 0.000000000000000 I I #
-449 straight-curve $-1 130.437299782056016 7.725000000000001 -11.250000000000000 0.000000000000000 -1.000000000000000 0.000000000000000 I I #
-450 vertex $-1 $307 $451 #
-451 point $-1 130.437299782056016 38.774999999999999 -11.250000000000000 #
-452 vertex $-1 $307 $453 #
-453 point $-1 130.437299782056016 7.725000000000001 -11.250000000000000 #
-454 straight-curve $-1 226.287299782056010 23.250000000000000 -11.250000000000000 0.987135147558702 0.159888087280635 0.000000000000000 I I #
-455 vertex $-1 $308 $456 #
-456 point $-1 226.287299782056010 23.250000000000000 -11.250000000000000 #
-457 straight-curve $-1 130.437299782056016 38.774999999999999 -11.250000000000000 -0.987135147558702 0.159888087280635 0.000000000000000 I I #
-458 straight-curve $-1 226.287299782056010 23.250000000000000 0.000000000000000 0.000000000000000 0.000000000000000 1.000000000000000 I I #
-459 vertex $-1 $310 $460 #
-460 point $-1 226.287299782055499 23.250000000000000 11.250000000000000 #
-461 straight-curve $-1 130.437299782056016 38.774999999999999 11.250000000000000 0.987135147558702 -0.159888087280635 0.000000000000000 I I #
-462 vertex $-1 $311 $463 #
-463 point $-1 130.437299782056016 38.774999999999999 11.250000000000000 #
-464 straight-curve $-1 130.437299782056016 38.774999999999999 0.000000000000000 0.000000000000000 0.000000000000000 1.000000000000000 I I #
-465 straight-curve $-1 130.437299782056016 7.725000000000001 11.250000000000000 0.000000000000000 1.000000000000000 0.000000000000000 I I #
-466 vertex $-1 $313 $467 #
-467 point $-1 130.437299782056016 7.725000000000001 11.250000000000000 #
-468 straight-curve $-1 130.437299782056016 7.725000000000001 0.000000000000000 0.000000000000000 0.000000000000000 -1.000000000000000 I I #
-469 straight-curve $-1 226.287299782056010 23.250000000000000 11.250000000000000 -0.987135147558702 -0.159888087280635 0.000000000000000 I I #
-470 straight-curve $-1 128.500000000000000 6.000000000000000 11.250000000000000 0.987135147558702 0.159888087280635 0.000000000000000 I I #
-471 straight-curve $-1 235.000000000000000 -23.250000000000000 0.000000000000000 0.000000000000000 0.000000000000000 1.000000000000000 I I #
End-of-ACIS-data 