500 0 1 0                                           
26 Datakit CrossCadWare V22.2 2    24 Thu Jul  7 03:12:35 2022 
1 9.9999999999999995e-007 1e-010
-0 body $1 $3 $-1 $-1 #
-1 rgb_color-st-attrib $-1 $2 $-1 $0 0.650980 0.486275 0.019608 #
-2 string_attrib-name_attrib-gen-attrib $-1 $-1 $1 $0 keep keep_kept ignore 17 ATTRIB_XACIS_NAME 6 Part 1 #
-3 lump $-1 $-1 $4 $0 #
-4 shell $-1 $-1 $-1 $5 $-1 $3 #
-5 face $6 $7 $95 $4 $-1 $65 forward single #
-6 rgb_color-st-attrib $-1 $-1 $-1 $5 0.650980 0.486275 0.019608 #
-7 face $8 $9 $96 $4 $-1 $66 forward single #
-8 rgb_color-st-attrib $-1 $-1 $-1 $7 0.650980 0.486275 0.019608 #
-9 face $10 $11 $97 $4 $-1 $67 forward single #
-10 rgb_color-st-attrib $-1 $-1 $-1 $9 0.650980 0.486275 0.019608 #
-11 face $12 $13 $98 $4 $-1 $68 forward single #
-12 rgb_color-st-attrib $-1 $-1 $-1 $11 0.650980 0.486275 0.019608 #
-13 face $14 $15 $99 $4 $-1 $69 forward single #
-14 rgb_color-st-attrib $-1 $-1 $-1 $13 0.650980 0.486275 0.019608 #
-15 face $16 $17 $106 $4 $-1 $70 forward single #
-16 rgb_color-st-attrib $-1 $-1 $-1 $15 0.650980 0.486275 0.019608 #
-17 face $18 $19 $107 $4 $-1 $71 forward single #
-18 rgb_color-st-attrib $-1 $-1 $-1 $17 0.650980 0.486275 0.019608 #
-19 face $20 $21 $108 $4 $-1 $72 forward single #
-20 rgb_color-st-attrib $-1 $-1 $-1 $19 0.650980 0.486275 0.019608 #
-21 face $22 $23 $109 $4 $-1 $73 forward single #
-22 rgb_color-st-attrib $-1 $-1 $-1 $21 0.650980 0.486275 0.019608 #
-23 face $24 $25 $110 $4 $-1 $74 reversed single #
-24 rgb_color-st-attrib $-1 $-1 $-1 $23 0.650980 0.486275 0.019608 #
-25 face $26 $27 $117 $4 $-1 $75 forward single #
-26 rgb_color-st-attrib $-1 $-1 $-1 $25 0.650980 0.486275 0.019608 #
-27 face $28 $29 $118 $4 $-1 $76 forward single #
-28 rgb_color-st-attrib $-1 $-1 $-1 $27 0.650980 0.486275 0.019608 #
-29 face $30 $31 $119 $4 $-1 $77 forward single #
-30 rgb_color-st-attrib $-1 $-1 $-1 $29 0.650980 0.486275 0.019608 #
-31 face $32 $33 $120 $4 $-1 $78 forward single #
-32 rgb_color-st-attrib $-1 $-1 $-1 $31 0.650980 0.486275 0.019608 #
-33 face $34 $35 $121 $4 $-1 $79 forward single #
-34 rgb_color-st-attrib $-1 $-1 $-1 $33 0.650980 0.486275 0.019608 #
-35 face $36 $37 $122 $4 $-1 $80 forward single #
-36 rgb_color-st-attrib $-1 $-1 $-1 $35 0.650980 0.486275 0.019608 #
-37 face $38 $39 $123 $4 $-1 $81 forward single #
-38 rgb_color-st-attrib $-1 $-1 $-1 $37 0.650980 0.486275 0.019608 #
-39 face $40 $41 $124 $4 $-1 $82 forward single #
-40 rgb_color-st-attrib $-1 $-1 $-1 $39 0.650980 0.486275 0.019608 #
-41 face $42 $43 $125 $4 $-1 $83 forward single #
-42 rgb_color-st-attrib $-1 $-1 $-1 $41 0.650980 0.486275 0.019608 #
-43 face $44 $45 $126 $4 $-1 $84 forward single #
-44 rgb_color-st-attrib $-1 $-1 $-1 $43 0.650980 0.486275 0.019608 #
-45 face $46 $47 $127 $4 $-1 $85 forward single #
-46 rgb_color-st-attrib $-1 $-1 $-1 $45 0.650980 0.486275 0.019608 #
-47 face $48 $49 $128 $4 $-1 $86 forward single #
-48 rgb_color-st-attrib $-1 $-1 $-1 $47 0.650980 0.486275 0.019608 #
-49 face $50 $51 $129 $4 $-1 $87 forward single #
-50 rgb_color-st-attrib $-1 $-1 $-1 $49 0.650980 0.486275 0.019608 #
-51 face $52 $53 $130 $4 $-1 $88 forward single #
-52 rgb_color-st-attrib $-1 $-1 $-1 $51 0.650980 0.486275 0.019608 #
-53 face $54 $55 $131 $4 $-1 $89 forward single #
-54 rgb_color-st-attrib $-1 $-1 $-1 $53 0.650980 0.486275 0.019608 #
-55 face $56 $57 $132 $4 $-1 $90 forward single #
-56 rgb_color-st-attrib $-1 $-1 $-1 $55 0.650980 0.486275 0.019608 #
-57 face $58 $59 $133 $4 $-1 $91 forward single #
-58 rgb_color-st-attrib $-1 $-1 $-1 $57 0.650980 0.486275 0.019608 #
-59 face $60 $61 $134 $4 $-1 $92 forward single #
-60 rgb_color-st-attrib $-1 $-1 $-1 $59 0.650980 0.486275 0.019608 #
-61 face $62 $63 $135 $4 $-1 $93 forward single #
-62 rgb_color-st-attrib $-1 $-1 $-1 $61 0.650980 0.486275 0.019608 #
-63 face $64 $-1 $136 $4 $-1 $94 forward single #
-64 rgb_color-st-attrib $-1 $-1 $-1 $63 0.650980 0.486275 0.019608 #
-65 plane-surface $-1 110.0000000000 -60.0000000000 0.0000000000 -0.0000000000 1.0000000000 0.0000000000 -1.0000000000 -0.0000000000 0.0000000000 forward_v I I I I #
-66 plane-surface $-1 110.0000000000 60.0000000000 0.0000000000 -1.0000000000 0.0000000000 0.0000000000 0.0000000000 -1.0000000000 0.0000000000 forward_v I I I I #
-67 plane-surface $-1 4.9999980129 60.0000000000 0.0000000000 0.0000000000 -1.0000000000 0.0000000000 1.0000000000 0.0000000000 0.0000000000 forward_v I I I I #
-68 plane-surface $-1 4.9999980129 -60.0000000000 0.0000000000 1.0000000000 0.0000000000 0.0000000000 -0.0000000000 1.0000000000 0.0000000000 forward_v I I I I #
-69 plane-surface $-1 0.0000000000 0.0000000000 80.0000000000 0.0000000000 0.0000000000 1.0000000000 0.0000000000 -1.0000000000 0.0000000000 forward_v I I I I #
-70 plane-surface $-1 4.9999980129 60.0000000000 0.0000000000 0.0000000000 -1.0000000000 0.0000000000 1.0000000000 0.0000000000 0.0000000000 forward_v I I I I #
-71 plane-surface $-1 -110.0000000000 -60.0000000000 0.0000000000 1.0000000000 0.0000000000 0.0000000000 0.0000000000 1.0000000000 0.0000000000 forward_v I I I I #
-72 plane-surface $-1 110.0000000000 -60.0000000000 0.0000000000 -0.0000000000 1.0000000000 0.0000000000 -1.0000000000 -0.0000000000 0.0000000000 forward_v I I I I #
-73 plane-surface $-1 -4.9999999270 60.0000000000 0.0000000000 -1.0000000000 -0.0000000000 0.0000000000 0.0000000000 -1.0000000000 0.0000000000 forward_v I I I I #
-74 plane-surface $-1 0.0000000000 0.0000000000 0.0000000000 0.0000000000 0.0000000000 1.0000000000 0.0000000000 -1.0000000000 0.0000000000 forward_v I I I I #
-75 plane-surface $-1 4.9999980129 -60.0000000000 0.0000000000 1.0000000000 0.0000000000 0.0000000000 -0.0000000000 1.0000000000 0.0000000000 forward_v I I I I #
-76 plane-surface $-1 110.0000000000 70.0000000000 0.0000000000 -0.0000000000 1.0000000000 0.0000000000 -1.0000000000 -0.0000000000 0.0000000000 forward_v I I I I #
-77 plane-surface $-1 110.0000000000 60.0000000000 0.0000000000 -1.0000000000 0.0000000000 0.0000000000 0.0000000000 -1.0000000000 0.0000000000 forward_v I I I I #
-78 plane-surface $-1 5.0000000000 190.0000000000 0.0000000000 0.0000000000 -1.0000000000 0.0000000000 1.0000000000 0.0000000000 0.0000000000 forward_v I I I I #
-79 plane-surface $-1 -4.9999999270 60.0000000000 0.0000000000 -1.0000000000 -0.0000000000 0.0000000000 0.0000000000 -1.0000000000 0.0000000000 forward_v I I I I #
-80 plane-surface $-1 5.0000000000 190.0000000000 0.0000000000 0.0000000000 -1.0000000000 0.0000000000 1.0000000000 0.0000000000 0.0000000000 forward_v I I I I #
-81 plane-surface $-1 -110.0000000000 -60.0000000000 0.0000000000 1.0000000000 0.0000000000 0.0000000000 0.0000000000 1.0000000000 0.0000000000 forward_v I I I I #
-82 plane-surface $-1 110.0000000000 70.0000000000 0.0000000000 -0.0000000000 1.0000000000 0.0000000000 -1.0000000000 -0.0000000000 0.0000000000 forward_v I I I I #
-83 plane-surface $-1 -110.0000000000 -70.0000000000 0.0000000000 0.0000000000 -1.0000000000 0.0000000000 1.0000000000 0.0000000000 0.0000000000 forward_v I I I I #
-84 plane-surface $-1 -110.0000000000 -60.0000000000 0.0000000000 1.0000000000 0.0000000000 0.0000000000 0.0000000000 1.0000000000 0.0000000000 forward_v I I I I #
-85 plane-surface $-1 -4.9999999270 -190.0000000000 0.0000000000 -0.0000000000 1.0000000000 0.0000000000 -1.0000000000 -0.0000000000 0.0000000000 forward_v I I I I #
-86 plane-surface $-1 -4.9999999270 60.0000000000 0.0000000000 -1.0000000000 -0.0000000000 0.0000000000 0.0000000000 -1.0000000000 0.0000000000 forward_v I I I I #
-87 plane-surface $-1 -110.0000000000 -70.0000000000 0.0000000000 0.0000000000 -1.0000000000 0.0000000000 1.0000000000 0.0000000000 0.0000000000 forward_v I I I I #
-88 plane-surface $-1 4.9999980129 -60.0000000000 0.0000000000 1.0000000000 0.0000000000 0.0000000000 -0.0000000000 1.0000000000 0.0000000000 forward_v I I I I #
-89 plane-surface $-1 -4.9999999270 -190.0000000000 0.0000000000 -0.0000000000 1.0000000000 0.0000000000 -1.0000000000 -0.0000000000 0.0000000000 forward_v I I I I #
-90 plane-surface $-1 110.0000000000 60.0000000000 0.0000000000 -1.0000000000 0.0000000000 0.0000000000 0.0000000000 -1.0000000000 0.0000000000 forward_v I I I I #
-91 plane-surface $-1 120.0000000000 200.0000000000 0.0000000000 0.0000000000 1.0000000000 0.0000000000 -1.0000000000 0.0000000000 0.0000000000 forward_v I I I I #
-92 plane-surface $-1 120.0000000000 -200.0000000000 0.0000000000 1.0000000000 0.0000000000 0.0000000000 0.0000000000 1.0000000000 0.0000000000 forward_v I I I I #
-93 plane-surface $-1 -120.0000000000 -200.0000000000 0.0000000000 0.0000000000 -1.0000000000 0.0000000000 1.0000000000 0.0000000000 0.0000000000 forward_v I I I I #
-94 plane-surface $-1 -120.0000000000 200.0000000000 0.0000000000 -1.0000000000 0.0000000000 0.0000000000 0.0000000000 -1.0000000000 0.0000000000 forward_v I I I I #
-95 loop $-1 $-1 $137 $5 #
-96 loop $-1 $-1 $141 $7 #
-97 loop $-1 $-1 $145 $9 #
-98 loop $-1 $-1 $149 $11 #
-99 loop $-1 $100 $153 $13 #
-100 loop $-1 $101 $157 $13 #
-101 loop $-1 $102 $161 $13 #
-102 loop $-1 $103 $165 $13 #
-103 loop $-1 $104 $169 $13 #
-104 loop $-1 $105 $173 $13 #
-105 loop $-1 $-1 $177 $13 #
-106 loop $-1 $-1 $181 $15 #
-107 loop $-1 $-1 $185 $17 #
-108 loop $-1 $-1 $189 $19 #
-109 loop $-1 $-1 $193 $21 #
-110 loop $-1 $111 $197 $23 #
-111 loop $-1 $112 $201 $23 #
-112 loop $-1 $113 $205 $23 #
-113 loop $-1 $114 $209 $23 #
-114 loop $-1 $115 $213 $23 #
-115 loop $-1 $116 $217 $23 #
-116 loop $-1 $-1 $221 $23 #
-117 loop $-1 $-1 $225 $25 #
-118 loop $-1 $-1 $229 $27 #
-119 loop $-1 $-1 $233 $29 #
-120 loop $-1 $-1 $237 $31 #
-121 loop $-1 $-1 $241 $33 #
-122 loop $-1 $-1 $245 $35 #
-123 loop $-1 $-1 $249 $37 #
-124 loop $-1 $-1 $253 $39 #
-125 loop $-1 $-1 $257 $41 #
-126 loop $-1 $-1 $261 $43 #
-127 loop $-1 $-1 $265 $45 #
-128 loop $-1 $-1 $269 $47 #
-129 loop $-1 $-1 $273 $49 #
-130 loop $-1 $-1 $277 $51 #
-131 loop $-1 $-1 $281 $53 #
-132 loop $-1 $-1 $285 $55 #
-133 loop $-1 $-1 $289 $57 #
-134 loop $-1 $-1 $293 $59 #
-135 loop $-1 $-1 $297 $61 #
-136 loop $-1 $-1 $301 $63 #
-137 coedge $-1 $138 $140 $222 $305 forward $95 $-1 #
-138 coedge $-1 $139 $137 $152 $306 forward $95 $-1 #
-139 coedge $-1 $140 $138 $180 $307 reversed $95 $-1 #
-140 coedge $-1 $137 $139 $142 $308 reversed $95 $-1 #
-141 coedge $-1 $142 $144 $223 $309 forward $96 $-1 #
-142 coedge $-1 $143 $141 $140 $308 forward $96 $-1 #
-143 coedge $-1 $144 $142 $179 $310 reversed $96 $-1 #
-144 coedge $-1 $141 $143 $146 $311 reversed $96 $-1 #
-145 coedge $-1 $146 $148 $224 $312 forward $97 $-1 #
-146 coedge $-1 $147 $145 $144 $311 forward $97 $-1 #
-147 coedge $-1 $148 $146 $178 $313 reversed $97 $-1 #
-148 coedge $-1 $145 $147 $150 $314 reversed $97 $-1 #
-149 coedge $-1 $150 $152 $221 $315 forward $98 $-1 #
-150 coedge $-1 $151 $149 $148 $314 forward $98 $-1 #
-151 coedge $-1 $152 $150 $177 $316 reversed $98 $-1 #
-152 coedge $-1 $149 $151 $138 $306 reversed $98 $-1 #
-153 coedge $-1 $154 $156 $295 $317 forward $99 $-1 #
-154 coedge $-1 $155 $153 $291 $318 forward $99 $-1 #
-155 coedge $-1 $156 $154 $303 $319 forward $99 $-1 #
-156 coedge $-1 $153 $155 $299 $320 forward $99 $-1 #
-157 coedge $-1 $158 $160 $279 $321 forward $100 $-1 #
-158 coedge $-1 $159 $157 $275 $322 forward $100 $-1 #
-159 coedge $-1 $160 $158 $287 $323 forward $100 $-1 #
-160 coedge $-1 $157 $159 $283 $324 forward $100 $-1 #
-161 coedge $-1 $162 $164 $263 $325 forward $101 $-1 #
-162 coedge $-1 $163 $161 $259 $326 forward $101 $-1 #
-163 coedge $-1 $164 $162 $271 $327 forward $101 $-1 #
-164 coedge $-1 $161 $163 $267 $328 forward $101 $-1 #
-165 coedge $-1 $166 $168 $247 $329 forward $102 $-1 #
-166 coedge $-1 $167 $165 $243 $330 forward $102 $-1 #
-167 coedge $-1 $168 $166 $255 $331 forward $102 $-1 #
-168 coedge $-1 $165 $167 $251 $332 forward $102 $-1 #
-169 coedge $-1 $170 $172 $231 $333 forward $103 $-1 #
-170 coedge $-1 $171 $169 $227 $334 forward $103 $-1 #
-171 coedge $-1 $172 $170 $239 $335 forward $103 $-1 #
-172 coedge $-1 $169 $171 $235 $336 forward $103 $-1 #
-173 coedge $-1 $174 $176 $195 $337 forward $104 $-1 #
-174 coedge $-1 $175 $173 $191 $338 forward $104 $-1 #
-175 coedge $-1 $176 $174 $187 $339 forward $104 $-1 #
-176 coedge $-1 $173 $175 $183 $340 forward $104 $-1 #
-177 coedge $-1 $178 $180 $151 $316 forward $105 $-1 #
-178 coedge $-1 $179 $177 $147 $313 forward $105 $-1 #
-179 coedge $-1 $180 $178 $143 $310 forward $105 $-1 #
-180 coedge $-1 $177 $179 $139 $307 forward $105 $-1 #
-181 coedge $-1 $182 $184 $218 $341 forward $106 $-1 #
-182 coedge $-1 $183 $181 $196 $342 forward $106 $-1 #
-183 coedge $-1 $184 $182 $176 $340 reversed $106 $-1 #
-184 coedge $-1 $181 $183 $186 $343 reversed $106 $-1 #
-185 coedge $-1 $186 $188 $219 $344 forward $107 $-1 #
-186 coedge $-1 $187 $185 $184 $343 forward $107 $-1 #
-187 coedge $-1 $188 $186 $175 $339 reversed $107 $-1 #
-188 coedge $-1 $185 $187 $190 $345 reversed $107 $-1 #
-189 coedge $-1 $190 $192 $220 $346 forward $108 $-1 #
-190 coedge $-1 $191 $189 $188 $345 forward $108 $-1 #
-191 coedge $-1 $192 $190 $174 $338 reversed $108 $-1 #
-192 coedge $-1 $189 $191 $194 $347 reversed $108 $-1 #
-193 coedge $-1 $194 $196 $217 $348 forward $109 $-1 #
-194 coedge $-1 $195 $193 $192 $347 forward $109 $-1 #
-195 coedge $-1 $196 $194 $173 $337 reversed $109 $-1 #
-196 coedge $-1 $193 $195 $182 $342 reversed $109 $-1 #
-197 coedge $-1 $198 $200 $293 $349 reversed $110 $-1 #
-198 coedge $-1 $199 $197 $297 $350 reversed $110 $-1 #
-199 coedge $-1 $200 $198 $301 $351 reversed $110 $-1 #
-200 coedge $-1 $197 $199 $289 $352 reversed $110 $-1 #
-201 coedge $-1 $202 $204 $277 $353 reversed $111 $-1 #
-202 coedge $-1 $203 $201 $281 $354 reversed $111 $-1 #
-203 coedge $-1 $204 $202 $285 $355 reversed $111 $-1 #
-204 coedge $-1 $201 $203 $273 $356 reversed $111 $-1 #
-205 coedge $-1 $206 $208 $261 $357 reversed $112 $-1 #
-206 coedge $-1 $207 $205 $265 $358 reversed $112 $-1 #
-207 coedge $-1 $208 $206 $269 $359 reversed $112 $-1 #
-208 coedge $-1 $205 $207 $257 $360 reversed $112 $-1 #
-209 coedge $-1 $210 $212 $245 $361 reversed $113 $-1 #
-210 coedge $-1 $211 $209 $249 $362 reversed $113 $-1 #
-211 coedge $-1 $212 $210 $253 $363 reversed $113 $-1 #
-212 coedge $-1 $209 $211 $241 $364 reversed $113 $-1 #
-213 coedge $-1 $214 $216 $229 $365 reversed $114 $-1 #
-214 coedge $-1 $215 $213 $233 $366 reversed $114 $-1 #
-215 coedge $-1 $216 $214 $237 $367 reversed $114 $-1 #
-216 coedge $-1 $213 $215 $225 $368 reversed $114 $-1 #
-217 coedge $-1 $218 $220 $193 $348 reversed $115 $-1 #
-218 coedge $-1 $219 $217 $181 $341 reversed $115 $-1 #
-219 coedge $-1 $220 $218 $185 $344 reversed $115 $-1 #
-220 coedge $-1 $217 $219 $189 $346 reversed $115 $-1 #
-221 coedge $-1 $222 $224 $149 $315 reversed $116 $-1 #
-222 coedge $-1 $223 $221 $137 $305 reversed $116 $-1 #
-223 coedge $-1 $224 $222 $141 $309 reversed $116 $-1 #
-224 coedge $-1 $221 $223 $145 $312 reversed $116 $-1 #
-225 coedge $-1 $226 $228 $216 $368 forward $117 $-1 #
-226 coedge $-1 $227 $225 $240 $369 forward $117 $-1 #
-227 coedge $-1 $228 $226 $170 $334 reversed $117 $-1 #
-228 coedge $-1 $225 $227 $230 $370 reversed $117 $-1 #
-229 coedge $-1 $230 $232 $213 $365 forward $118 $-1 #
-230 coedge $-1 $231 $229 $228 $370 forward $118 $-1 #
-231 coedge $-1 $232 $230 $169 $333 reversed $118 $-1 #
-232 coedge $-1 $229 $231 $234 $371 reversed $118 $-1 #
-233 coedge $-1 $234 $236 $214 $366 forward $119 $-1 #
-234 coedge $-1 $235 $233 $232 $371 forward $119 $-1 #
-235 coedge $-1 $236 $234 $172 $336 reversed $119 $-1 #
-236 coedge $-1 $233 $235 $238 $372 reversed $119 $-1 #
-237 coedge $-1 $238 $240 $215 $367 forward $120 $-1 #
-238 coedge $-1 $239 $237 $236 $372 forward $120 $-1 #
-239 coedge $-1 $240 $238 $171 $335 reversed $120 $-1 #
-240 coedge $-1 $237 $239 $226 $369 reversed $120 $-1 #
-241 coedge $-1 $242 $244 $212 $364 forward $121 $-1 #
-242 coedge $-1 $243 $241 $256 $373 forward $121 $-1 #
-243 coedge $-1 $244 $242 $166 $330 reversed $121 $-1 #
-244 coedge $-1 $241 $243 $246 $374 reversed $121 $-1 #
-245 coedge $-1 $246 $248 $209 $361 forward $122 $-1 #
-246 coedge $-1 $247 $245 $244 $374 forward $122 $-1 #
-247 coedge $-1 $248 $246 $165 $329 reversed $122 $-1 #
-248 coedge $-1 $245 $247 $250 $375 reversed $122 $-1 #
-249 coedge $-1 $250 $252 $210 $362 forward $123 $-1 #
-250 coedge $-1 $251 $249 $248 $375 forward $123 $-1 #
-251 coedge $-1 $252 $250 $168 $332 reversed $123 $-1 #
-252 coedge $-1 $249 $251 $254 $376 reversed $123 $-1 #
-253 coedge $-1 $254 $256 $211 $363 forward $124 $-1 #
-254 coedge $-1 $255 $253 $252 $376 forward $124 $-1 #
-255 coedge $-1 $256 $254 $167 $331 reversed $124 $-1 #
-256 coedge $-1 $253 $255 $242 $373 reversed $124 $-1 #
-257 coedge $-1 $258 $260 $208 $360 forward $125 $-1 #
-258 coedge $-1 $259 $257 $272 $377 forward $125 $-1 #
-259 coedge $-1 $260 $258 $162 $326 reversed $125 $-1 #
-260 coedge $-1 $257 $259 $262 $378 reversed $125 $-1 #
-261 coedge $-1 $262 $264 $205 $357 forward $126 $-1 #
-262 coedge $-1 $263 $261 $260 $378 forward $126 $-1 #
-263 coedge $-1 $264 $262 $161 $325 reversed $126 $-1 #
-264 coedge $-1 $261 $263 $266 $379 reversed $126 $-1 #
-265 coedge $-1 $266 $268 $206 $358 forward $127 $-1 #
-266 coedge $-1 $267 $265 $264 $379 forward $127 $-1 #
-267 coedge $-1 $268 $266 $164 $328 reversed $127 $-1 #
-268 coedge $-1 $265 $267 $270 $380 reversed $127 $-1 #
-269 coedge $-1 $270 $272 $207 $359 forward $128 $-1 #
-270 coedge $-1 $271 $269 $268 $380 forward $128 $-1 #
-271 coedge $-1 $272 $270 $163 $327 reversed $128 $-1 #
-272 coedge $-1 $269 $271 $258 $377 reversed $128 $-1 #
-273 coedge $-1 $274 $276 $204 $356 forward $129 $-1 #
-274 coedge $-1 $275 $273 $288 $381 forward $129 $-1 #
-275 coedge $-1 $276 $274 $158 $322 reversed $129 $-1 #
-276 coedge $-1 $273 $275 $278 $382 reversed $129 $-1 #
-277 coedge $-1 $278 $280 $201 $353 forward $130 $-1 #
-278 coedge $-1 $279 $277 $276 $382 forward $130 $-1 #
-279 coedge $-1 $280 $278 $157 $321 reversed $130 $-1 #
-280 coedge $-1 $277 $279 $282 $383 reversed $130 $-1 #
-281 coedge $-1 $282 $284 $202 $354 forward $131 $-1 #
-282 coedge $-1 $283 $281 $280 $383 forward $131 $-1 #
-283 coedge $-1 $284 $282 $160 $324 reversed $131 $-1 #
-284 coedge $-1 $281 $283 $286 $384 reversed $131 $-1 #
-285 coedge $-1 $286 $288 $203 $355 forward $132 $-1 #
-286 coedge $-1 $287 $285 $284 $384 forward $132 $-1 #
-287 coedge $-1 $288 $286 $159 $323 reversed $132 $-1 #
-288 coedge $-1 $285 $287 $274 $381 reversed $132 $-1 #
-289 coedge $-1 $290 $292 $200 $352 forward $133 $-1 #
-290 coedge $-1 $291 $289 $304 $385 forward $133 $-1 #
-291 coedge $-1 $292 $290 $154 $318 reversed $133 $-1 #
-292 coedge $-1 $289 $291 $294 $386 reversed $133 $-1 #
-293 coedge $-1 $294 $296 $197 $349 forward $134 $-1 #
-294 coedge $-1 $295 $293 $292 $386 forward $134 $-1 #
-295 coedge $-1 $296 $294 $153 $317 reversed $134 $-1 #
-296 coedge $-1 $293 $295 $298 $387 reversed $134 $-1 #
-297 coedge $-1 $298 $300 $198 $350 forward $135 $-1 #
-298 coedge $-1 $299 $297 $296 $387 forward $135 $-1 #
-299 coedge $-1 $300 $298 $156 $320 reversed $135 $-1 #
-300 coedge $-1 $297 $299 $302 $388 reversed $135 $-1 #
-301 coedge $-1 $302 $304 $199 $351 forward $136 $-1 #
-302 coedge $-1 $303 $301 $300 $388 forward $136 $-1 #
-303 coedge $-1 $304 $302 $155 $319 reversed $136 $-1 #
-304 coedge $-1 $301 $303 $290 $385 reversed $136 $-1 #
-305 edge $-1 $390 0.0000000000 $392 105.0000019871 $137 $389 forward 7 unknown #
-306 edge $-1 $392 0.0000000000 $395 80.0000000000 $138 $394 forward 7 unknown #
-307 edge $-1 $398 0.0000000000 $395 105.0000019871 $139 $397 forward 7 unknown #
-308 edge $-1 $390 0.0000000000 $398 80.0000000000 $140 $400 forward 7 unknown #
-309 edge $-1 $402 0.0000000000 $390 120.0000000000 $141 $401 forward 7 unknown #
-310 edge $-1 $405 0.0000000000 $398 120.0000000000 $143 $404 forward 7 unknown #
-311 edge $-1 $402 0.0000000000 $405 80.0000000000 $144 $407 forward 7 unknown #
-312 edge $-1 $409 0.0000000000 $402 105.0000019871 $145 $408 forward 7 unknown #
-313 edge $-1 $412 0.0000000000 $405 105.0000019871 $147 $411 forward 7 unknown #
-314 edge $-1 $409 0.0000000000 $412 80.0000000000 $148 $414 forward 7 unknown #
-315 edge $-1 $392 0.0000000000 $409 120.0000000000 $149 $415 forward 7 unknown #
-316 edge $-1 $395 0.0000000000 $412 120.0000000000 $151 $416 forward 7 unknown #
-317 edge $-1 $418 0.0000000000 $420 400.0000000000 $153 $417 forward 7 unknown #
-318 edge $-1 $420 0.0000000000 $423 240.0000000000 $154 $422 forward 7 unknown #
-319 edge $-1 $423 0.0000000000 $426 400.0000000000 $155 $425 forward 7 unknown #
-320 edge $-1 $426 0.0000000000 $418 240.0000000000 $156 $428 forward 7 unknown #
-321 edge $-1 $430 0.0000000000 $432 120.0000000000 $157 $429 forward 7 unknown #
-322 edge $-1 $432 0.0000000000 $435 105.0000000000 $158 $434 forward 7 unknown #
-323 edge $-1 $435 0.0000000000 $438 120.0000000000 $159 $437 forward 7 unknown #
-324 edge $-1 $438 0.0000000000 $430 105.0000000000 $160 $440 forward 7 unknown #
-325 edge $-1 $442 0.0000000000 $444 120.0000000000 $161 $441 forward 7 unknown #
-326 edge $-1 $444 0.0000000000 $447 105.0000000730 $162 $446 forward 7 unknown #
-327 edge $-1 $447 0.0000000000 $450 120.0000000000 $163 $449 forward 7 unknown #
-328 edge $-1 $450 0.0000000000 $442 105.0000000730 $164 $452 forward 7 unknown #
-329 edge $-1 $454 0.0000000000 $456 105.0000000000 $165 $453 forward 7 unknown #
-330 edge $-1 $456 0.0000000000 $459 120.0000000000 $166 $458 forward 7 unknown #
-331 edge $-1 $459 0.0000000000 $462 105.0000000000 $167 $461 forward 7 unknown #
-332 edge $-1 $462 0.0000000000 $454 120.0000000000 $168 $464 forward 7 unknown #
-333 edge $-1 $466 0.0000000000 $468 105.0000000000 $169 $465 forward 7 unknown #
-334 edge $-1 $468 0.0000000000 $471 120.0000000000 $170 $470 forward 7 unknown #
-335 edge $-1 $471 0.0000000000 $474 105.0000000000 $171 $473 forward 7 unknown #
-336 edge $-1 $474 0.0000000000 $466 120.0000000000 $172 $476 forward 7 unknown #
-337 edge $-1 $478 0.0000000000 $480 120.0000000000 $173 $477 forward 7 unknown #
-338 edge $-1 $480 0.0000000000 $483 105.0000000730 $174 $482 forward 7 unknown #
-339 edge $-1 $483 0.0000000000 $486 120.0000000000 $175 $485 forward 7 unknown #
-340 edge $-1 $486 0.0000000000 $478 105.0000000730 $176 $488 forward 7 unknown #
-341 edge $-1 $490 0.0000000000 $492 105.0000000730 $181 $489 forward 7 unknown #
-342 edge $-1 $492 0.0000000000 $478 80.0000000000 $182 $494 forward 7 unknown #
-343 edge $-1 $490 0.0000000000 $486 80.0000000000 $184 $495 forward 7 unknown #
-344 edge $-1 $497 0.0000000000 $490 120.0000000000 $185 $496 forward 7 unknown #
-345 edge $-1 $497 0.0000000000 $483 80.0000000000 $188 $499 forward 7 unknown #
-346 edge $-1 $501 0.0000000000 $497 105.0000000730 $189 $500 forward 7 unknown #
-347 edge $-1 $501 0.0000000000 $480 80.0000000000 $192 $503 forward 7 unknown #
-348 edge $-1 $492 0.0000000000 $501 120.0000000000 $193 $504 forward 7 unknown #
-349 edge $-1 $506 0.0000000000 $508 400.0000000000 $197 $505 forward 7 unknown #
-350 edge $-1 $511 0.0000000000 $506 240.0000000000 $198 $510 forward 7 unknown #
-351 edge $-1 $514 0.0000000000 $511 400.0000000000 $199 $513 forward 7 unknown #
-352 edge $-1 $508 0.0000000000 $514 240.0000000000 $200 $516 forward 7 unknown #
-353 edge $-1 $518 0.0000000000 $520 120.0000000000 $201 $517 forward 7 unknown #
-354 edge $-1 $523 0.0000000000 $518 105.0000000000 $202 $522 forward 7 unknown #
-355 edge $-1 $526 0.0000000000 $523 120.0000000000 $203 $525 forward 7 unknown #
-356 edge $-1 $520 0.0000000000 $526 105.0000000000 $204 $528 forward 7 unknown #
-357 edge $-1 $530 0.0000000000 $532 120.0000000000 $205 $529 forward 7 unknown #
-358 edge $-1 $535 0.0000000000 $530 105.0000000730 $206 $534 forward 7 unknown #
-359 edge $-1 $538 0.0000000000 $535 120.0000000000 $207 $537 forward 7 unknown #
-360 edge $-1 $532 0.0000000000 $538 105.0000000730 $208 $540 forward 7 unknown #
-361 edge $-1 $542 0.0000000000 $544 105.0000000000 $209 $541 forward 7 unknown #
-362 edge $-1 $547 0.0000000000 $542 120.0000000000 $210 $546 forward 7 unknown #
-363 edge $-1 $550 0.0000000000 $547 105.0000000000 $211 $549 forward 7 unknown #
-364 edge $-1 $544 0.0000000000 $550 120.0000000000 $212 $552 forward 7 unknown #
-365 edge $-1 $554 0.0000000000 $556 105.0000000000 $213 $553 forward 7 unknown #
-366 edge $-1 $559 0.0000000000 $554 120.0000000000 $214 $558 forward 7 unknown #
-367 edge $-1 $562 0.0000000000 $559 105.0000000000 $215 $561 forward 7 unknown #
-368 edge $-1 $556 0.0000000000 $562 120.0000000000 $216 $564 forward 7 unknown #
-369 edge $-1 $562 0.0000000000 $471 80.0000000000 $226 $565 forward 7 unknown #
-370 edge $-1 $556 0.0000000000 $468 80.0000000000 $228 $566 forward 7 unknown #
-371 edge $-1 $554 0.0000000000 $466 80.0000000000 $232 $567 forward 7 unknown #
-372 edge $-1 $559 0.0000000000 $474 80.0000000000 $236 $568 forward 7 unknown #
-373 edge $-1 $550 0.0000000000 $459 80.0000000000 $242 $569 forward 7 unknown #
-374 edge $-1 $544 0.0000000000 $456 80.0000000000 $244 $570 forward 7 unknown #
-375 edge $-1 $542 0.0000000000 $454 80.0000000000 $248 $571 forward 7 unknown #
-376 edge $-1 $547 0.0000000000 $462 80.0000000000 $252 $572 forward 7 unknown #
-377 edge $-1 $538 0.0000000000 $447 80.0000000000 $258 $573 forward 7 unknown #
-378 edge $-1 $532 0.0000000000 $444 80.0000000000 $260 $574 forward 7 unknown #
-379 edge $-1 $530 0.0000000000 $442 80.0000000000 $264 $575 forward 7 unknown #
-380 edge $-1 $535 0.0000000000 $450 80.0000000000 $268 $576 forward 7 unknown #
-381 edge $-1 $526 0.0000000000 $435 80.0000000000 $274 $577 forward 7 unknown #
-382 edge $-1 $520 0.0000000000 $432 80.0000000000 $276 $578 forward 7 unknown #
-383 edge $-1 $518 0.0000000000 $430 80.0000000000 $280 $579 forward 7 unknown #
-384 edge $-1 $523 0.0000000000 $438 80.0000000000 $284 $580 forward 7 unknown #
-385 edge $-1 $514 0.0000000000 $423 80.0000000000 $290 $581 forward 7 unknown #
-386 edge $-1 $508 0.0000000000 $420 80.0000000000 $292 $582 forward 7 unknown #
-387 edge $-1 $506 0.0000000000 $418 80.0000000000 $296 $583 forward 7 unknown #
-388 edge $-1 $511 0.0000000000 $426 80.0000000000 $300 $584 forward 7 unknown #
-389 straight-curve $-1 110.000000000000000 -60.000000000000000 0.000000000000000 -1.000000000000000 -0.000000000000000 0.000000000000000 I I #
-390 vertex $-1 $305 $391 #
-391 point $-1 110.000000000000000 -60.000000000000000 0.000000000000000 #
-392 vertex $-1 $305 $393 #
-393 point $-1 4.999998012864050 -60.000000000000000 0.000000000000000 #
-394 straight-curve $-1 4.999998012864050 -60.000000000000000 0.000000000000000 0.000000000000000 0.000000000000000 1.000000000000000 I I #
-395 vertex $-1 $306 $396 #
-396 point $-1 4.999998012864050 -60.000000000000000 80.000000000000000 #
-397 straight-curve $-1 110.000000000000000 -60.000000000000000 80.000000000000000 -1.000000000000000 -0.000000000000000 0.000000000000000 I I #
-398 vertex $-1 $307 $399 #
-399 point $-1 110.000000000000000 -60.000000000000000 80.000000000000000 #
-400 straight-curve $-1 110.000000000000000 -60.000000000000000 0.000000000000000 0.000000000000000 0.000000000000000 1.000000000000000 I I #
-401 straight-curve $-1 110.000000000000000 60.000000000000000 0.000000000000000 0.000000000000000 -1.000000000000000 0.000000000000000 I I #
-402 vertex $-1 $309 $403 #
-403 point $-1 110.000000000000000 60.000000000000000 0.000000000000000 #
-404 straight-curve $-1 110.000000000000000 60.000000000000000 80.000000000000000 0.000000000000000 -1.000000000000000 0.000000000000000 I I #
-405 vertex $-1 $310 $406 #
-406 point $-1 110.000000000000000 60.000000000000000 80.000000000000000 #
-407 straight-curve $-1 110.000000000000000 60.000000000000000 0.000000000000000 0.000000000000000 0.000000000000000 1.000000000000000 I I #
-408 straight-curve $-1 4.999998012863980 60.000000000000000 0.000000000000000 1.000000000000000 0.000000000000000 0.000000000000000 I I #
-409 vertex $-1 $312 $410 #
-410 point $-1 4.999998012863980 60.000000000000000 0.000000000000000 #
-411 straight-curve $-1 4.999998012863980 60.000000000000000 80.000000000000000 1.000000000000000 0.000000000000000 0.000000000000000 I I #
-412 vertex $-1 $313 $413 #
-413 point $-1 4.999998012863980 60.000000000000000 80.000000000000000 #
-414 straight-curve $-1 4.999998012863980 60.000000000000000 0.000000000000000 0.000000000000000 0.000000000000000 1.000000000000000 I I #
-415 straight-curve $-1 4.999998012864050 -60.000000000000000 0.000000000000000 -0.000000000000001 1.000000000000000 0.000000000000000 I I #
-416 straight-curve $-1 4.999998012864050 -60.000000000000000 80.000000000000000 -0.000000000000001 1.000000000000000 0.000000000000000 I I #
-417 straight-curve $-1 120.000000000000000 -200.000000000000000 80.000000000000000 0.000000000000000 1.000000000000000 0.000000000000000 I I #
-418 vertex $-1 $317 $419 #
-419 point $-1 120.000000000000000 -200.000000000000000 80.000000000000000 #
-420 vertex $-1 $317 $421 #
-421 point $-1 120.000000000000000 200.000000000000000 80.000000000000000 #
-422 straight-curve $-1 120.000000000000000 200.000000000000000 80.000000000000000 -1.000000000000000 0.000000000000000 0.000000000000000 I I #
-423 vertex $-1 $318 $424 #
-424 point $-1 -120.000000000000000 200.000000000000000 80.000000000000000 #
-425 straight-curve $-1 -120.000000000000000 200.000000000000000 80.000000000000000 0.000000000000000 -1.000000000000000 0.000000000000000 I I #
-426 vertex $-1 $319 $427 #
-427 point $-1 -120.000000000000000 -200.000000000000000 80.000000000000000 #
-428 straight-curve $-1 -120.000000000000000 -200.000000000000000 80.000000000000000 1.000000000000000 0.000000000000000 0.000000000000000 I I #
-429 straight-curve $-1 5.000000000000000 -190.000000000000000 80.000000000000000 -0.000000000000001 1.000000000000000 0.000000000000000 I I #
-430 vertex $-1 $321 $431 #
-431 point $-1 5.000000000000000 -190.000000000000000 80.000000000000000 #
-432 vertex $-1 $321 $433 #
-433 point $-1 4.999999999999890 -70.000000000000000 80.000000000000000 #
-434 straight-curve $-1 4.999999999999890 -70.000000000000000 80.000000000000000 1.000000000000000 0.000000000000000 0.000000000000000 I I #
-435 vertex $-1 $322 $436 #
-436 point $-1 110.000000000000000 -70.000000000000000 80.000000000000000 #
-437 straight-curve $-1 110.000000000000000 -70.000000000000000 80.000000000000000 0.000000000000000 -1.000000000000000 0.000000000000000 I I #
-438 vertex $-1 $323 $439 #
-439 point $-1 110.000000000000000 -190.000000000000000 80.000000000000000 #
-440 straight-curve $-1 110.000000000000000 -190.000000000000000 80.000000000000000 -1.000000000000000 -0.000000000000000 0.000000000000000 I I #
-441 straight-curve $-1 -110.000000000000000 -190.000000000000000 80.000000000000000 0.000000000000000 1.000000000000000 0.000000000000000 I I #
-442 vertex $-1 $325 $443 #
-443 point $-1 -110.000000000000000 -190.000000000000000 80.000000000000000 #
-444 vertex $-1 $325 $445 #
-445 point $-1 -110.000000000000000 -70.000000000000000 80.000000000000000 #
-446 straight-curve $-1 -110.000000000000000 -70.000000000000000 80.000000000000000 1.000000000000000 0.000000000000000 0.000000000000000 I I #
-447 vertex $-1 $326 $448 #
-448 point $-1 -4.999999926963440 -70.000000000000000 80.000000000000000 #
-449 straight-curve $-1 -4.999999926963440 -70.000000000000000 80.000000000000000 0.000000000000001 -1.000000000000000 0.000000000000000 I I #
-450 vertex $-1 $327 $451 #
-451 point $-1 -4.999999926963349 -190.000000000000000 80.000000000000000 #
-452 straight-curve $-1 -4.999999926963349 -190.000000000000000 80.000000000000000 -1.000000000000000 -0.000000000000000 0.000000000000000 I I #
-453 straight-curve $-1 -110.000000000000000 190.000000000000000 80.000000000000000 1.000000000000000 0.000000000000000 0.000000000000000 I I #
-454 vertex $-1 $329 $455 #
-455 point $-1 -110.000000000000000 190.000000000000000 80.000000000000000 #
-456 vertex $-1 $329 $457 #
-457 point $-1 -5.000000000000000 190.000000000000000 80.000000000000000 #
-458 straight-curve $-1 -5.000000000000000 190.000000000000000 80.000000000000000 0.000000000000001 -1.000000000000000 0.000000000000000 I I #
-459 vertex $-1 $330 $460 #
-460 point $-1 -4.999999999999860 70.000000000000000 80.000000000000000 #
-461 straight-curve $-1 -4.999999999999860 70.000000000000000 80.000000000000000 -1.000000000000000 0.000000000000000 0.000000000000000 I I #
-462 vertex $-1 $331 $463 #
-463 point $-1 -110.000000000000000 70.000000000000000 80.000000000000000 #
-464 straight-curve $-1 -110.000000000000000 70.000000000000000 80.000000000000000 0.000000000000000 1.000000000000000 0.000000000000000 I I #
-465 straight-curve $-1 110.000000000000000 70.000000000000000 80.000000000000000 -1.000000000000000 -0.000000000000000 0.000000000000000 I I #
-466 vertex $-1 $333 $467 #
-467 point $-1 110.000000000000000 70.000000000000000 80.000000000000000 #
-468 vertex $-1 $333 $469 #
-469 point $-1 5.000000000000091 70.000000000000000 80.000000000000000 #
-470 straight-curve $-1 5.000000000000091 70.000000000000000 80.000000000000000 -0.000000000000001 1.000000000000000 0.000000000000000 I I #
-471 vertex $-1 $334 $472 #
-472 point $-1 5.000000000000000 190.000000000000000 80.000000000000000 #
-473 straight-curve $-1 5.000000000000000 190.000000000000000 80.000000000000000 1.000000000000000 0.000000000000000 0.000000000000000 I I #
-474 vertex $-1 $335 $475 #
-475 point $-1 110.000000000000000 190.000000000000000 80.000000000000000 #
-476 straight-curve $-1 110.000000000000000 190.000000000000000 80.000000000000000 0.000000000000000 -1.000000000000000 0.000000000000000 I I #
-477 straight-curve $-1 -4.999999926963530 60.000000000000000 80.000000000000000 0.000000000000001 -1.000000000000000 0.000000000000000 I I #
-478 vertex $-1 $337 $479 #
-479 point $-1 -4.999999926963530 60.000000000000000 80.000000000000000 #
-480 vertex $-1 $337 $481 #
-481 point $-1 -4.999999926963440 -60.000000000000000 80.000000000000000 #
-482 straight-curve $-1 -4.999999926963440 -60.000000000000000 80.000000000000000 -1.000000000000000 -0.000000000000000 0.000000000000000 I I #
-483 vertex $-1 $338 $484 #
-484 point $-1 -110.000000000000000 -60.000000000000000 80.000000000000000 #
-485 straight-curve $-1 -110.000000000000000 -60.000000000000000 80.000000000000000 0.000000000000000 1.000000000000000 0.000000000000000 I I #
-486 vertex $-1 $339 $487 #
-487 point $-1 -110.000000000000000 60.000000000000000 80.000000000000000 #
-488 straight-curve $-1 -110.000000000000000 60.000000000000000 80.000000000000000 1.000000000000000 -0.000000000000000 0.000000000000000 I I #
-489 straight-curve $-1 -110.000000000000000 60.000000000000000 0.000000000000000 1.000000000000000 -0.000000000000000 0.000000000000000 I I #
-490 vertex $-1 $341 $491 #
-491 point $-1 -110.000000000000000 60.000000000000000 0.000000000000000 #
-492 vertex $-1 $341 $493 #
-493 point $-1 -4.999999926963530 60.000000000000000 0.000000000000000 #
-494 straight-curve $-1 -4.999999926963530 60.000000000000000 0.000000000000000 0.000000000000000 0.000000000000000 1.000000000000000 I I #
-495 straight-curve $-1 -110.000000000000000 60.000000000000000 0.000000000000000 0.000000000000000 0.000000000000000 1.000000000000000 I I #
-496 straight-curve $-1 -110.000000000000000 -60.000000000000000 0.000000000000000 0.000000000000000 1.000000000000000 0.000000000000000 I I #
-497 vertex $-1 $344 $498 #
-498 point $-1 -110.000000000000000 -60.000000000000000 0.000000000000000 #
-499 straight-curve $-1 -110.000000000000000 -60.000000000000000 0.000000000000000 0.000000000000000 0.000000000000000 1.000000000000000 I I #
-500 straight-curve $-1 -4.999999926963440 -60.000000000000000 0.000000000000000 -1.000000000000000 -0.000000000000000 0.000000000000000 I I #
-501 vertex $-1 $346 $502 #
-502 point $-1 -4.999999926963440 -60.000000000000000 0.000000000000000 #
-503 straight-curve $-1 -4.999999926963440 -60.000000000000000 0.000000000000000 0.000000000000000 0.000000000000000 1.000000000000000 I I #
-504 straight-curve $-1 -4.999999926963530 60.000000000000000 0.000000000000000 0.000000000000001 -1.000000000000000 0.000000000000000 I I #
-505 straight-curve $-1 120.000000000000000 -200.000000000000000 0.000000000000000 0.000000000000000 1.000000000000000 0.000000000000000 I I #
-506 vertex $-1 $349 $507 #
-507 point $-1 120.000000000000000 -200.000000000000000 0.000000000000000 #
-508 vertex $-1 $349 $509 #
-509 point $-1 120.000000000000000 200.000000000000000 0.000000000000000 #
-510 straight-curve $-1 -120.000000000000000 -200.000000000000000 0.000000000000000 1.000000000000000 0.000000000000000 0.000000000000000 I I #
-511 vertex $-1 $350 $512 #
-512 point $-1 -120.000000000000000 -200.000000000000000 0.000000000000000 #
-513 straight-curve $-1 -120.000000000000000 200.000000000000000 0.000000000000000 0.000000000000000 -1.000000000000000 0.000000000000000 I I #
-514 vertex $-1 $351 $515 #
-515 point $-1 -120.000000000000000 200.000000000000000 0.000000000000000 #
-516 straight-curve $-1 120.000000000000000 200.000000000000000 0.000000000000000 -1.000000000000000 0.000000000000000 0.000000000000000 I I #
-517 straight-curve $-1 5.000000000000000 -190.000000000000000 0.000000000000000 -0.000000000000001 1.000000000000000 0.000000000000000 I I #
-518 vertex $-1 $353 $519 #
-519 point $-1 5.000000000000000 -190.000000000000000 0.000000000000000 #
-520 vertex $-1 $353 $521 #
-521 point $-1 4.999999999999890 -70.000000000000000 0.000000000000000 #
-522 straight-curve $-1 110.000000000000000 -190.000000000000000 0.000000000000000 -1.000000000000000 -0.000000000000000 0.000000000000000 I I #
-523 vertex $-1 $354 $524 #
-524 point $-1 110.000000000000000 -190.000000000000000 0.000000000000000 #
-525 straight-curve $-1 110.000000000000000 -70.000000000000000 0.000000000000000 0.000000000000000 -1.000000000000000 0.000000000000000 I I #
-526 vertex $-1 $355 $527 #
-527 point $-1 110.000000000000000 -70.000000000000000 0.000000000000000 #
-528 straight-curve $-1 4.999999999999890 -70.000000000000000 0.000000000000000 1.000000000000000 0.000000000000000 0.000000000000000 I I #
-529 straight-curve $-1 -110.000000000000000 -190.000000000000000 0.000000000000000 0.000000000000000 1.000000000000000 0.000000000000000 I I #
-530 vertex $-1 $357 $531 #
-531 point $-1 -110.000000000000000 -190.000000000000000 0.000000000000000 #
-532 vertex $-1 $357 $533 #
-533 point $-1 -110.000000000000000 -70.000000000000000 0.000000000000000 #
-534 straight-curve $-1 -4.999999926963349 -190.000000000000000 0.000000000000000 -1.000000000000000 -0.000000000000000 0.000000000000000 I I #
-535 vertex $-1 $358 $536 #
-536 point $-1 -4.999999926963349 -190.000000000000000 0.000000000000000 #
-537 straight-curve $-1 -4.999999926963440 -70.000000000000000 0.000000000000000 0.000000000000001 -1.000000000000000 0.000000000000000 I I #
-538 vertex $-1 $359 $539 #
-539 point $-1 -4.999999926963440 -70.000000000000000 0.000000000000000 #
-540 straight-curve $-1 -110.000000000000000 -70.000000000000000 0.000000000000000 1.000000000000000 0.000000000000000 0.000000000000000 I I #
-541 straight-curve $-1 -110.000000000000000 190.000000000000000 0.000000000000000 1.000000000000000 0.000000000000000 0.000000000000000 I I #
-542 vertex $-1 $361 $543 #
-543 point $-1 -110.000000000000000 190.000000000000000 0.000000000000000 #
-544 vertex $-1 $361 $545 #
-545 point $-1 -5.000000000000000 190.000000000000000 0.000000000000000 #
-546 straight-curve $-1 -110.000000000000000 70.000000000000000 0.000000000000000 0.000000000000000 1.000000000000000 0.000000000000000 I I #
-547 vertex $-1 $362 $548 #
-548 point $-1 -110.000000000000000 70.000000000000000 0.000000000000000 #
-549 straight-curve $-1 -4.999999999999860 70.000000000000000 0.000000000000000 -1.000000000000000 0.000000000000000 0.000000000000000 I I #
-550 vertex $-1 $363 $551 #
-551 point $-1 -4.999999999999860 70.000000000000000 0.000000000000000 #
-552 straight-curve $-1 -5.000000000000000 190.000000000000000 0.000000000000000 0.000000000000001 -1.000000000000000 0.000000000000000 I I #
-553 straight-curve $-1 110.000000000000000 70.000000000000000 0.000000000000000 -1.000000000000000 -0.000000000000000 0.000000000000000 I I #
-554 vertex $-1 $365 $555 #
-555 point $-1 110.000000000000000 70.000000000000000 0.000000000000000 #
-556 vertex $-1 $365 $557 #
-557 point $-1 5.000000000000091 70.000000000000000 0.000000000000000 #
-558 straight-curve $-1 110.000000000000000 190.000000000000000 0.000000000000000 0.000000000000000 -1.000000000000000 0.000000000000000 I I #
-559 vertex $-1 $366 $560 #
-560 point $-1 110.000000000000000 190.000000000000000 0.000000000000000 #
-561 straight-curve $-1 5.000000000000000 190.000000000000000 0.000000000000000 1.000000000000000 0.000000000000000 0.000000000000000 I I #
-562 vertex $-1 $367 $563 #
-563 point $-1 5.000000000000000 190.000000000000000 0.000000000000000 #
-564 straight-curve $-1 5.000000000000091 70.000000000000000 0.000000000000000 -0.000000000000001 1.000000000000000 0.000000000000000 I I #
-565 straight-curve $-1 5.000000000000000 190.000000000000000 0.000000000000000 0.000000000000000 0.000000000000000 1.000000000000000 I I #
-566 straight-curve $-1 5.000000000000091 70.000000000000000 0.000000000000000 0.000000000000000 0.000000000000000 1.000000000000000 I I #
-567 straight-curve $-1 110.000000000000000 70.000000000000000 0.000000000000000 0.000000000000000 0.000000000000000 1.000000000000000 I I #
-568 straight-curve $-1 110.000000000000000 190.000000000000000 0.000000000000000 0.000000000000000 0.000000000000000 1.000000000000000 I I #
-569 straight-curve $-1 -4.999999999999860 70.000000000000000 0.000000000000000 0.000000000000000 0.000000000000000 1.000000000000000 I I #
-570 straight-curve $-1 -5.000000000000000 190.000000000000000 0.000000000000000 0.000000000000000 0.000000000000000 1.000000000000000 I I #
-571 straight-curve $-1 -110.000000000000000 190.000000000000000 0.000000000000000 0.000000000000000 0.000000000000000 1.000000000000000 I I #
-572 straight-curve $-1 -110.000000000000000 70.000000000000000 0.000000000000000 0.000000000000000 0.000000000000000 1.000000000000000 I I #
-573 straight-curve $-1 -4.999999926963440 -70.000000000000000 0.000000000000000 0.000000000000000 0.000000000000000 1.000000000000000 I I #
-574 straight-curve $-1 -110.000000000000000 -70.000000000000000 0.000000000000000 0.000000000000000 0.000000000000000 1.000000000000000 I I #
-575 straight-curve $-1 -110.000000000000000 -190.000000000000000 0.000000000000000 0.000000000000000 0.000000000000000 1.000000000000000 I I #
-576 straight-curve $-1 -4.999999926963349 -190.000000000000000 0.000000000000000 0.000000000000000 0.000000000000000 1.000000000000000 I I #
-577 straight-curve $-1 110.000000000000000 -70.000000000000000 0.000000000000000 0.000000000000000 0.000000000000000 1.000000000000000 I I #
-578 straight-curve $-1 4.999999999999890 -70.000000000000000 0.000000000000000 0.000000000000000 0.000000000000000 1.000000000000000 I I #
-579 straight-curve $-1 5.000000000000000 -190.000000000000000 0.000000000000000 0.000000000000000 0.000000000000000 1.000000000000000 I I #
-580 straight-curve $-1 110.000000000000000 -190.000000000000000 0.000000000000000 0.000000000000000 0.000000000000000 1.000000000000000 I I #
-581 straight-curve $-1 -120.000000000000000 200.000000000000000 0.000000000000000 0.000000000000000 0.000000000000000 1.000000000000000 I I #
-582 straight-curve $-1 120.000000000000000 200.000000000000000 0.000000000000000 0.000000000000000 0.000000000000000 1.000000000000000 I I #
-583 straight-curve $-1 120.000000000000000 -200.000000000000000 0.000000000000000 0.000000000000000 0.000000000000000 1.000000000000000 I I #
-584 straight-curve $-1 -120.000000000000000 -200.000000000000000 0.000000000000000 0.000000000000000 0.000000000000000 1.000000000000000 I I #
End-of-ACIS-data 